<?xml version="1.0" standalone="no"?>
<!DOCTYPE svg PUBLIC "-//W3C//DTD SVG 20010904//EN"
 "http://www.w3.org/TR/2001/REC-SVG-20010904/DTD/svg10.dtd">
<svg version="1.0" xmlns="http://www.w3.org/2000/svg"
 width="858.000000pt" height="858.000000pt" viewBox="0 0 858.000000 858.000000"
 preserveAspectRatio="xMidYMid meet">
<metadata>
Created by potrace 1.14, written by Peter Selinger 2001-2017
</metadata>
<g transform="translate(0.000000,858.000000) scale(0.100000,-0.100000)"
fill="#000000" stroke="none">
<path d="M2867 7589 c-12 -7 -17 -20 -15 -37 3 -23 0 -27 -19 -24 -16 2 -23
-2 -23 -14 0 -9 -9 -31 -20 -49 -11 -17 -18 -41 -15 -53 2 -12 0 -22 -6 -22
-16 0 -10 -36 10 -62 13 -16 18 -33 14 -47 -3 -13 1 -29 12 -41 12 -13 14 -20
6 -20 -16 0 -6 -36 20 -72 11 -16 15 -28 9 -28 -5 0 -10 4 -10 9 0 5 -7 11
-15 15 -22 8 -18 -8 10 -38 29 -31 31 -38 10 -30 -17 7 -21 -11 -5 -21 6 -3
10 -14 10 -24 0 -10 7 -24 15 -31 13 -10 15 -9 15 12 0 13 -6 30 -12 38 -11
12 -10 12 5 0 18 -13 18 -11 14 31 -3 24 -9 54 -12 67 -5 14 -3 22 4 22 6 0
11 9 11 20 0 11 12 44 27 75 l27 55 -21 27 c-12 16 -26 27 -32 26 -14 -4 -14
16 0 55 6 18 15 30 19 27 13 -8 19 22 7 34 -9 10 -9 12 3 9 23 -5 26 59 4 83
-20 22 -22 22 -47 8z m-33 -269 c-6 -5 -24 21 -24 34 0 6 6 1 14 -10 8 -10 12
-21 10 -24z m20 24 c3 -8 2 -12 -4 -9 -6 3 -10 10 -10 16 0 14 7 11 14 -7z"/>
<path d="M3225 7510 c-8 -13 34 -54 45 -44 2 3 0 8 -6 12 -6 4 -15 15 -21 26
-8 14 -12 15 -18 6z"/>
<path d="M2608 7443 c7 -3 16 -2 19 1 4 3 -2 6 -13 5 -11 0 -14 -3 -6 -6z"/>
<path d="M3363 7344 c-3 -8 3 -25 15 -37 25 -27 99 -167 76 -145 -8 9 -34 -17
-34 -34 0 -7 9 -28 20 -46 24 -39 25 -46 4 -38 -18 7 -70 -18 -77 -36 -5 -17
50 -88 69 -88 9 0 13 -4 9 -10 -3 -5 -13 -6 -23 -3 -12 4 -14 3 -7 -5 6 -5 26
-15 47 -20 47 -13 66 3 35 29 -12 10 -16 18 -10 19 19 0 94 -71 87 -82 -4 -6
-10 -4 -16 6 -5 9 -14 16 -20 16 -7 0 -6 -5 2 -15 7 -8 9 -15 4 -16 -5 0 1 -4
14 -9 27 -11 84 -2 76 12 -4 5 -15 8 -25 5 -15 -4 -19 0 -19 21 0 15 -9 42
-20 60 -26 42 -25 47 2 28 29 -20 44 -21 28 -1 -7 8 -20 29 -29 47 -9 17 -25
36 -36 42 -48 26 -68 48 -70 76 -2 18 3 31 12 35 12 4 14 0 10 -15 -3 -14 0
-20 10 -20 11 0 13 6 8 23 -3 12 -7 27 -7 34 -1 6 -28 42 -60 79 -40 47 -55
71 -48 79 10 12 4 25 -12 25 -5 0 -11 -7 -15 -16z"/>
<path d="M3440 7330 c0 -5 5 -10 11 -10 5 0 7 5 4 10 -3 6 -8 10 -11 10 -2 0
-4 -4 -4 -10z"/>
<path d="M3122 7234 c10 -10 20 -15 24 -12 3 4 -5 12 -18 18 -22 12 -22 12 -6
-6z"/>
<path d="M3546 7235 c4 -9 0 -15 -7 -15 -10 -1 -9 -5 4 -14 19 -15 22 -37 6
-53 -15 -15 9 -52 38 -59 12 -3 24 -17 28 -31 3 -13 26 -46 50 -72 45 -48 56
-73 33 -70 -32 4 -56 -2 -62 -16 -5 -15 70 -98 144 -158 19 -16 28 -26 19 -23
-21 6 -59 -33 -59 -60 0 -10 7 -30 15 -44 33 -58 68 -136 70 -155 1 -11 14
-40 29 -65 l28 -45 -47 50 -47 50 26 -42 c14 -24 26 -47 26 -53 0 -5 3 -9 8
-7 4 1 18 -8 32 -20 54 -51 -35 -11 -128 57 -40 29 -72 56 -72 60 0 16 -174
176 -213 196 -23 12 -52 36 -65 53 -17 23 -31 31 -55 31 -18 1 -50 7 -72 15
-30 11 -41 11 -47 2 -13 -21 -9 -60 10 -80 16 -20 16 -20 -3 -12 -33 13 -85
18 -85 7 0 -5 7 -15 15 -22 8 -7 12 -16 9 -21 -3 -5 2 -9 10 -9 26 0 18 -18
-14 -35 -16 -9 -30 -22 -30 -30 0 -8 -8 -15 -17 -16 -10 -1 2 -7 27 -15 124
-38 158 -70 68 -64 -15 1 -38 -6 -50 -14 -31 -22 -33 -21 -67 27 -16 23 -41
54 -55 68 -14 15 -22 30 -18 34 4 4 3 5 -3 4 -5 -2 -28 9 -50 25 -26 18 -33
27 -19 23 18 -4 23 1 28 25 9 48 7 56 -15 63 -14 5 -18 12 -14 23 3 9 3 13 0
10 -4 -4 -20 5 -36 19 -28 25 -53 42 -94 62 -11 5 -31 21 -44 36 -28 30 -38
26 -19 -8 38 -69 72 -110 104 -123 27 -12 34 -19 29 -34 -4 -13 1 -22 15 -30
15 -8 20 -8 20 3 0 7 -6 19 -12 26 -11 11 -9 11 10 2 17 -9 21 -17 16 -34 -9
-31 -8 -31 -51 -9 -21 11 -49 23 -63 27 -14 4 -29 14 -35 20 -5 7 -35 21 -65
32 -46 16 -58 17 -68 7 -7 -7 -12 -15 -12 -18 0 -9 61 -25 75 -20 8 3 29 -9
48 -28 18 -19 62 -54 98 -78 87 -59 200 -143 221 -163 9 -9 21 -17 27 -17 16
0 25 -22 11 -30 -8 -5 4 -24 40 -61 29 -30 75 -80 102 -111 l49 -57 -43 3
c-24 2 -60 4 -81 4 -24 1 -36 6 -32 13 4 6 13 8 21 5 26 -10 14 2 -18 18 -17
9 -34 14 -36 11 -3 -3 0 -5 6 -5 7 0 12 -4 12 -10 0 -23 -21 -8 -34 25 -8 19
-20 35 -27 35 -7 0 -10 13 -7 35 3 27 1 32 -9 23 -7 -5 -10 -14 -7 -19 3 -5
-2 -19 -10 -31 -9 -12 -16 -32 -16 -44 0 -12 -9 -33 -20 -47 -11 -14 -19 -31
-18 -38 2 -6 -3 -14 -11 -17 -8 -2 -11 0 -8 5 4 6 -2 18 -12 27 -13 12 -20 14
-23 5 -5 -16 -48 -2 -48 17 0 8 -5 14 -11 14 -5 0 -7 -5 -3 -12 5 -7 3 -8 -6
-3 -21 13 -80 23 -85 15 -3 -5 8 -14 25 -22 30 -13 43 -35 14 -24 -9 3 -28 6
-44 6 -34 0 -72 47 -49 61 10 6 2 19 -31 50 l-44 42 39 -6 c22 -4 65 -11 95
-17 69 -12 112 -5 140 25 l21 23 -37 30 c-20 17 -33 35 -30 41 5 7 -5 10 -26
9 -89 -5 -115 1 -166 42 -28 22 -53 36 -57 31 -5 -9 11 -23 60 -49 31 -17 1
-14 -31 3 -31 16 -56 18 -92 9 l-22 -6 21 -35 c20 -33 21 -35 3 -25 -10 6 -30
22 -43 36 l-25 26 29 30 c22 23 32 27 42 19 9 -8 13 -8 13 -1 0 6 -7 15 -16
20 -14 8 -12 13 14 43 17 19 34 30 38 26 5 -4 4 -11 -2 -15 -12 -8 -37 -52
-30 -52 2 0 11 7 20 15 13 13 18 13 43 1 32 -16 98 -42 129 -51 14 -3 28 1 38
10 9 9 31 19 50 22 34 5 55 36 34 49 -15 9 -119 35 -152 37 -36 2 -48 27 -14
27 13 0 33 -7 45 -15 22 -15 38 -8 25 11 -4 6 -27 25 -51 42 -34 25 -54 32
-90 32 -26 0 -73 7 -104 15 -75 19 -101 19 -94 0 4 -10 -14 -26 -63 -52 -37
-21 -66 -41 -64 -45 3 -5 -4 -8 -15 -8 -22 0 -36 30 -26 60 5 15 2 20 -14 20
-11 0 -22 -4 -25 -9 -4 -5 -29 -12 -57 -16 -38 -5 -53 -12 -56 -26 -3 -10 -11
-19 -19 -19 -8 0 -11 -6 -7 -17 6 -15 -6 -16 -143 -9 -143 7 -151 6 -169 -14
-11 -12 -25 -18 -36 -15 -9 3 -20 2 -23 -3 -5 -8 19 -24 54 -35 8 -3 -9 -6
-38 -6 -29 -1 -69 -8 -89 -16 l-37 -16 23 -15 c12 -9 25 -13 28 -10 3 3 18 -3
33 -14 28 -20 50 -12 50 17 0 7 9 13 20 13 11 0 20 -5 20 -11 0 -13 -39 -79
-46 -79 -3 0 -23 14 -44 31 -49 40 -62 35 -45 -14 l13 -39 -56 7 c-57 6 -112
7 -174 4 -18 -1 -58 8 -88 20 -75 29 -183 46 -209 32 -15 -9 -32 -7 -71 9 -65
25 -64 26 -56 -10 3 -19 2 -29 -4 -25 -6 4 -7 -1 -3 -11 4 -12 2 -15 -8 -12
-8 3 -13 13 -13 22 1 9 -2 16 -6 16 -5 0 -17 3 -27 7 -16 6 -16 5 -4 -10 8
-10 10 -21 6 -25 -4 -4 -10 -1 -12 6 -4 10 -9 8 -19 -5 -17 -22 -18 -34 -2
-31 12 3 14 -3 17 -40 0 -9 10 -23 22 -30 18 -12 24 -11 43 7 31 29 40 26 32
-10 -5 -28 -1 -36 44 -78 31 -30 49 -53 45 -62 -3 -9 18 -43 51 -84 45 -55 49
-62 18 -33 -37 36 -111 74 -121 64 -3 -2 25 -34 62 -70 36 -36 62 -66 56 -66
-6 0 -15 -9 -21 -20 -9 -16 -7 -26 8 -48 11 -15 17 -32 15 -38 -2 -6 6 -19 18
-30 16 -14 23 -15 26 -6 3 6 9 10 14 6 5 -3 9 0 9 5 0 6 -7 11 -15 11 -8 0
-15 5 -15 10 0 15 8 12 43 -12 58 -41 93 -88 66 -88 -7 0 -9 -12 -5 -32 3 -18
2 -48 -2 -66 l-7 -34 -32 40 c-18 22 -43 42 -55 44 -12 2 -28 13 -34 26 -15
30 -26 41 -24 22 5 -36 -2 -56 -25 -71 l-25 -15 25 -34 25 -34 0 27 c0 18 5
27 15 27 16 0 17 -33 2 -57 -4 -6 -3 -23 2 -36 7 -17 7 -38 0 -59 -6 -22 -6
-51 1 -85 13 -62 -9 -158 -43 -184 -20 -17 -20 -18 41 -76 34 -32 62 -63 62
-69 0 -5 -12 -10 -28 -9 -28 1 -62 -14 -62 -27 0 -5 6 -8 14 -8 8 0 18 -10 22
-22 8 -27 33 -58 47 -58 5 0 7 7 3 15 -3 8 -1 15 4 15 6 0 10 -5 10 -11 0 -6
8 -8 18 -5 13 4 23 -1 32 -19 13 -24 40 -35 40 -16 0 6 16 3 36 -5 41 -17 38
-5 -8 34 -15 13 -37 36 -48 52 l-21 29 44 19 c25 11 48 25 51 31 13 20 -4 49
-32 56 -15 3 -41 17 -56 30 -16 14 -33 25 -38 25 -12 0 2 53 18 66 8 6 14 17
14 24 0 6 8 23 19 36 22 28 25 25 69 -61 24 -48 37 -63 64 -73 44 -16 46 -15
51 6 2 12 8 7 22 -20 18 -36 35 -50 35 -28 0 6 8 10 18 10 26 0 67 -25 64 -39
-1 -7 1 -10 5 -8 17 11 89 -50 110 -93 12 -25 22 -42 23 -37 0 4 14 0 30 -8
17 -9 28 -20 24 -26 -4 -6 -11 -6 -20 2 -8 6 -14 8 -14 3 0 -4 -5 -3 -12 4
-17 17 -33 15 -19 -2 7 -8 44 -24 84 -36 40 -12 80 -26 89 -31 10 -5 25 -9 33
-9 29 0 15 -25 -15 -26 -17 -1 -37 -9 -44 -19 -21 -29 -89 -31 -132 -4 -29 17
-40 20 -59 11 -16 -7 -35 -8 -57 -1 -52 15 -59 12 -52 -18 6 -23 5 -25 -12
-18 -20 8 -46 10 -106 7 -26 -1 -45 -11 -69 -34 -20 -21 -34 -28 -37 -20 -2 6
-8 12 -13 12 -6 0 -7 -6 -4 -12 4 -7 0 -5 -8 5 -18 22 -29 22 -44 -2 -7 -11
-23 -21 -35 -23 -14 -2 -29 -16 -40 -37 -16 -32 -47 -55 -85 -63 -26 -6 55
-44 90 -42 33 1 50 14 19 14 -15 0 -22 6 -22 20 0 12 7 20 16 20 11 0 15 6 11
20 -3 13 0 20 8 20 7 0 15 4 17 10 2 6 16 6 41 -1 21 -5 35 -14 32 -20 -4 -5
1 -9 11 -9 9 0 22 -8 29 -17 11 -15 16 -16 38 -4 32 17 61 7 88 -30 l21 -29
18 22 c11 13 19 17 20 11 0 -7 11 -13 25 -13 40 0 105 -47 131 -95 31 -57 57
-101 65 -111 14 -17 1 -22 -34 -14 -50 13 -173 30 -214 30 -24 0 -48 9 -71 27
l-35 26 5 -26 c3 -15 4 -27 2 -27 -2 0 -48 -12 -101 -26 -54 -14 -118 -28
-142 -31 -40 -4 -43 -3 -28 11 8 9 21 16 28 16 9 0 9 3 0 14 -7 9 -8 17 -3 20
10 6 -5 85 -17 96 -3 3 -13 19 -21 35 -10 19 -27 34 -47 39 -18 6 -34 17 -35
25 -3 13 -7 12 -26 -7 -23 -23 -32 -92 -12 -92 6 0 10 -7 10 -15 0 -8 -5 -15
-11 -15 -16 0 -59 -48 -59 -66 0 -7 -6 -14 -14 -14 -8 0 -17 -7 -20 -16 -8
-20 20 -43 51 -44 13 0 22 -3 22 -7 -5 -31 2 -44 21 -38 20 6 27 -5 13 -19
-10 -10 -10 -116 0 -116 4 0 7 -8 7 -18 0 -23 26 -59 36 -50 4 4 2 14 -4 21
-9 10 -8 17 0 25 9 9 9 12 0 12 -7 0 -12 4 -12 10 0 5 7 7 15 4 8 -4 15 -1 15
5 0 7 17 12 43 12 76 -1 90 1 78 8 -8 5 -7 13 6 27 24 27 53 38 53 20 0 -8 -7
-17 -16 -20 -14 -5 -14 -8 0 -28 24 -34 20 -45 -21 -54 -21 -4 -31 -9 -23 -11
13 -3 15 -17 14 -71 -3 -88 -14 -175 -24 -187 -11 -15 -22 -85 -13 -85 11 0
93 96 93 108 0 20 26 32 40 19 12 -10 12 -9 1 5 -11 15 -11 19 1 23 7 3 15 20
16 38 3 42 16 53 44 38 13 -6 48 -25 78 -40 l55 -28 -33 -17 c-31 -16 -33 -20
-29 -58 3 -22 -2 -63 -9 -92 -19 -70 -18 -96 4 -97 9 0 12 -3 5 -5 -37 -16
-80 46 -79 113 1 47 9 45 -92 23 -28 -7 -55 -16 -58 -22 -3 -5 -18 -14 -32
-20 -21 -8 -24 -12 -11 -17 24 -9 119 -97 119 -110 0 -14 42 -31 76 -31 27 0
31 -12 9 -30 -14 -12 -19 -7 -16 15 1 6 -32 -25 -73 -69 -41 -43 -73 -85 -72
-93 4 -23 28 -33 71 -27 22 3 45 6 51 6 6 1 16 9 23 19 10 17 8 18 -15 9 -28
-11 -74 -13 -74 -4 0 3 5 15 11 26 9 16 8 19 -3 13 -7 -5 3 8 21 28 19 21 36
37 38 37 5 0 -2 -25 -9 -30 -15 -12 -12 -33 6 -36 24 -3 59 14 51 26 -3 4 11
17 30 29 36 21 48 18 18 -5 -17 -11 -16 -13 8 -19 16 -4 25 -13 24 -23 -1 -23
-15 -43 -24 -37 -5 2 -6 -7 -3 -20 5 -29 11 -30 38 -10 41 31 62 8 21 -25 -12
-10 -19 -22 -15 -26 4 -4 14 -1 23 6 12 10 16 9 21 -4 6 -17 44 -23 44 -7 0 5
-7 16 -15 25 -21 21 -19 31 9 44 17 8 27 22 32 48 9 51 -21 75 -88 69 -27 -2
-48 -1 -48 3 0 9 112 99 128 104 6 2 20 -14 31 -35 l19 -37 -29 -15 c-16 -9
-29 -18 -29 -20 0 -11 28 -4 46 13 10 9 31 22 46 29 22 10 29 9 43 -7 9 -10
24 -16 34 -13 25 6 36 -24 13 -35 -9 -5 -38 -15 -64 -23 -26 -7 -56 -20 -68
-29 -20 -15 -19 -16 25 -14 27 1 51 8 58 17 14 17 131 39 165 31 12 -4 22 -12
22 -20 0 -28 70 -45 175 -42 70 2 99 0 98 -8 -3 -15 148 -29 156 -15 5 7 19 7
44 -1 29 -9 46 -9 71 0 43 16 57 15 50 -3 -4 -9 -19 -15 -38 -15 -29 -1 -30
-1 -12 -15 29 -22 73 -19 86 5 6 11 18 20 28 20 11 0 13 -3 5 -8 -6 -4 14 -8
45 -8 40 0 68 -7 95 -22 21 -12 46 -22 56 -22 12 0 196 -56 196 -60 0 0 1 -11
1 -25 2 -21 -2 -25 -17 -20 -41 13 -80 14 -126 2 -27 -7 -59 -10 -73 -6 -16 4
-19 7 -7 8 9 1 17 7 17 14 0 9 -32 12 -124 12 -87 0 -129 -4 -137 -12 -7 -7
-30 -13 -51 -13 -21 0 -38 -5 -38 -11 0 -5 4 -8 8 -5 5 3 6 -12 2 -32 -5 -33
-9 -37 -36 -36 -29 1 -29 1 -27 -43 2 -25 -2 -53 -7 -64 -8 -14 -7 -19 2 -19
9 -1 8 -5 -4 -13 -26 -20 -4 -47 37 -47 31 0 35 -3 35 -25 0 -49 15 -79 36
-71 12 5 12 2 4 -15 -8 -15 -8 -29 -1 -51 14 -39 14 -39 -5 -31 -12 4 -15 2
-12 -8 5 -15 -39 -42 -54 -33 -5 3 -8 18 -6 33 2 24 -50 146 -59 138 -7 -7 31
-143 44 -158 16 -19 17 -33 2 -24 -5 4 -19 -1 -29 -10 -17 -16 -19 -15 -33 7
-9 12 -25 49 -36 82 -22 62 -60 119 -91 136 -15 8 -20 8 -20 -3 0 -17 35 -120
55 -164 8 -17 15 -36 15 -42 0 -6 8 -20 18 -30 9 -11 22 -26 28 -33 12 -15 36
-81 53 -144 6 -23 21 -52 33 -66 33 -36 68 -86 68 -96 0 -5 9 -17 19 -26 10
-10 21 -26 24 -38 5 -18 2 -20 -28 -16 -42 5 -43 -13 -2 -61 15 -18 30 -43 33
-57 6 -23 28 -33 36 -16 2 4 41 26 86 48 l84 42 -6 -37 c-14 -78 -42 -111 -96
-111 -20 0 -70 -53 -70 -76 0 -27 -15 -13 -52 49 -43 73 -73 139 -83 187 -11
52 -55 203 -60 209 -3 2 -11 -1 -17 -7 -9 -9 -7 -21 6 -51 10 -21 16 -45 13
-53 -3 -7 -10 1 -17 21 l-13 34 -13 -24 c-12 -23 -13 -22 -12 19 0 47 -23 79
-102 138 -32 24 -41 40 -56 93 -18 66 -33 94 -95 181 -22 31 -35 58 -32 69 6
23 -31 97 -55 110 -17 9 -20 3 -30 -72 -11 -80 -11 -157 0 -187 12 -31 38
-123 38 -131 0 -5 27 -44 60 -85 l59 -76 -3 -72 c-2 -40 -7 -80 -12 -88 -23
-42 -97 80 -99 162 -1 58 -33 209 -50 236 -26 40 -36 101 -27 158 6 36 5 63
-2 80 -10 23 -13 24 -30 11 -16 -12 -19 -28 -20 -83 0 -61 4 -78 39 -146 21
-42 36 -79 32 -82 -11 -11 -75 61 -82 92 -4 16 -8 35 -11 42 -6 22 -29 13 -47
-20 -13 -22 -21 -28 -29 -20 -13 13 -52 -2 -88 -34 -40 -35 -67 -39 -76 -12
-4 13 -8 28 -9 33 -1 6 -5 18 -10 29 -5 12 -3 21 5 26 9 6 1 16 -28 35 -22 15
-46 24 -53 20 -6 -4 -15 -2 -19 5 -4 7 -13 9 -19 5 -8 -4 -9 -11 -2 -19 14
-17 2 -96 -15 -89 -7 2 -10 11 -7 19 3 8 2 21 -1 29 -9 25 -46 0 -46 -30 0
-14 5 -25 10 -25 6 0 10 -13 10 -28 0 -16 7 -51 15 -78 18 -60 18 -64 0 -40
-8 11 -15 30 -15 43 0 15 -5 21 -14 17 -8 -3 -17 0 -22 7 -5 9 -2 10 9 6 12
-5 17 -1 17 12 0 25 -26 47 -33 29 -4 -10 -10 -8 -21 6 -18 22 -17 22 -33 -16
-10 -22 -9 -35 5 -67 9 -23 22 -41 28 -41 12 0 38 -50 29 -58 -3 -3 -6 -3 -8
-1 -2 2 -18 23 -35 45 -18 23 -32 47 -32 53 0 6 -5 11 -11 11 -6 0 -8 -9 -4
-20 6 -20 -4 -24 -51 -23 -21 1 -37 -43 -28 -74 4 -15 6 -45 5 -65 -4 -50 5
-62 32 -43 33 23 40 18 18 -14 -34 -47 -42 -78 -25 -91 7 -7 14 -18 14 -25 0
-7 7 -18 15 -25 8 -7 15 -19 15 -27 0 -8 -10 -3 -24 14 l-24 28 -7 -26 c-3
-14 -7 -32 -8 -40 -2 -8 -6 -19 -9 -25 -12 -18 1 -121 23 -186 12 -35 23 -67
24 -73 13 -44 19 -55 29 -52 15 5 20 51 8 74 -7 13 -6 24 4 37 9 13 10 24 4
37 -20 36 -12 74 20 92 23 14 30 25 30 48 0 16 4 29 8 29 4 0 6 -16 4 -35 -5
-43 9 -45 45 -7 l26 27 -7 -102 c-7 -103 -1 -157 15 -147 10 6 29 -38 29 -64
-1 -10 -9 -1 -20 20 -11 20 -29 43 -41 52 -12 8 -18 19 -14 25 7 12 -15 81
-26 81 -11 0 -16 -11 -24 -54 -6 -29 -5 -37 4 -31 8 4 14 0 17 -12 3 -11 19
-27 35 -37 55 -32 62 -53 48 -149 l-12 -85 32 -61 c17 -34 27 -61 22 -61 -5 0
-12 6 -14 13 -4 7 -6 6 -6 -4 -1 -15 24 -34 41 -31 3 1 9 -5 12 -13 8 -21 -24
-19 -39 2 -11 15 -13 15 -20 -6 -5 -16 1 -32 20 -57 19 -24 24 -39 17 -46 -7
-7 -15 1 -27 25 -9 19 -25 37 -36 40 -13 3 -17 1 -12 -6 4 -7 8 -25 8 -42 1
-16 5 -39 10 -50 4 -11 -8 -3 -26 19 -19 21 -70 75 -114 120 -85 86 -125 138
-125 161 0 8 -4 17 -10 20 -5 3 -10 16 -9 28 1 22 1 22 7 -1 20 -70 54 49 41
143 -9 69 -22 87 -40 54 -7 -13 -12 -25 -11 -26 9 -13 -2 -45 -16 -50 -33 -13
-43 -43 -13 -43 12 0 20 -9 23 -25 5 -25 -7 -35 -15 -12 -3 9 -7 9 -20 -2 -18
-14 -24 -67 -7 -56 6 3 10 1 10 -4 0 -6 -5 -11 -11 -11 -6 0 -8 -7 -5 -16 3
-8 1 -25 -5 -37 -10 -18 -8 -24 15 -42 14 -11 26 -30 26 -40 1 -20 1 -20 15
-1 17 23 18 22 33 -22 7 -19 7 -32 1 -32 -5 0 -9 -7 -9 -16 0 -10 6 -14 14
-11 17 7 49 -35 65 -85 7 -21 18 -38 26 -38 13 0 30 -44 26 -67 -1 -7 3 -13 9
-13 19 0 29 -44 14 -61 -13 -14 -10 -19 27 -43 22 -15 47 -25 54 -23 7 3 18 0
24 -6 13 -13 15 -97 2 -97 -13 0 -114 77 -124 95 -4 8 -14 15 -21 15 -7 0 -23
11 -36 25 -19 21 -30 24 -55 20 -16 -4 -39 -17 -50 -29 -21 -24 -47 -37 -78
-41 -17 -2 -31 -15 -39 -37 -2 -4 -23 -8 -48 -9 -25 -2 -60 -12 -78 -22 -37
-22 -38 -22 42 -63 27 -14 74 -43 105 -64 31 -21 94 -50 141 -65 47 -15 114
-44 150 -65 36 -20 94 -53 130 -73 36 -20 88 -55 115 -78 28 -23 66 -48 85
-56 19 -9 55 -30 81 -48 25 -19 103 -63 175 -99 99 -49 133 -71 146 -94 17
-31 75 -69 86 -57 4 4 -4 15 -17 26 -28 23 -24 24 22 4 19 -8 37 -21 41 -30 3
-9 10 -14 16 -10 5 3 23 -1 39 -9 26 -14 30 -14 35 0 6 15 26 11 26 -6 0 -17
-50 -20 -74 -5 -23 15 -24 15 -28 -15 -3 -20 1 -35 12 -45 22 -20 29 -19 23 5
-3 11 0 20 6 20 6 0 11 -13 11 -29 0 -22 12 -40 53 -78 30 -27 70 -54 90 -60
36 -11 37 -11 37 16 0 33 -28 61 -60 61 -36 0 -90 22 -90 37 0 7 -4 13 -10 13
-16 0 -12 17 6 24 9 4 22 2 28 -3 7 -6 44 -9 84 -7 40 2 72 -1 72 -5 0 -5 7
-9 15 -9 8 0 15 -9 15 -20 0 -34 28 -11 44 38 15 41 15 48 0 70 -26 40 -27 70
-2 83 19 10 24 9 36 -10 8 -11 22 -21 31 -21 19 0 98 104 130 172 29 61 73 80
86 36 8 -26 32 -85 46 -110 12 -23 11 -69 0 -87 -12 -19 4 -51 27 -51 15 -1
15 -2 2 -13 -11 -9 -14 -26 -10 -66 5 -56 23 -78 33 -40 3 11 10 18 15 15 11
-6 46 18 48 33 1 6 2 22 3 35 1 21 4 23 33 17 43 -9 55 -31 40 -74 -17 -47
-15 -65 8 -77 14 -7 26 -8 39 0 24 12 58 13 63 1 8 -23 178 102 178 131 0 14
54 -4 73 -25 16 -19 17 -19 17 -2 0 15 3 16 12 7 9 -9 8 -16 -4 -29 -15 -17
-21 -61 -19 -145 l1 -38 75 0 75 0 0 119 c0 112 1 119 23 134 l22 16 -22 0
c-24 1 -33 21 -10 21 8 0 8 3 -2 9 -12 8 -12 12 2 25 8 9 20 16 26 16 6 0 11
4 11 8 0 4 15 16 33 26 17 11 50 35 72 55 22 20 72 58 111 84 61 42 75 47 92
38 31 -17 104 -13 127 7 29 24 65 86 65 110 0 16 22 31 96 68 116 58 192 129
233 219 16 33 47 91 70 130 22 38 41 77 41 85 1 9 34 30 82 53 l81 38 -7 97
c-3 53 -8 131 -11 172 -14 236 -29 388 -40 410 -7 14 -11 38 -8 53 3 15 2 65
-2 112 -5 63 -10 85 -21 85 -8 0 -14 -4 -14 -9 0 -5 -8 -11 -17 -13 -26 -7
-71 -103 -95 -204 -19 -75 -23 -84 -35 -69 -8 11 -25 18 -45 17 -41 -1 -52 6
-37 24 20 24 3 61 -32 68 -16 3 -28 10 -24 15 3 5 7 42 10 81 3 54 10 79 30
108 14 20 25 51 25 69 0 17 5 35 11 38 10 7 32 52 34 70 0 6 4 16 9 24 5 8 8
48 8 90 -1 48 2 71 7 62 6 -9 8 14 5 60 -4 62 -8 77 -27 91 -12 10 -18 18 -13
18 5 0 3 6 -3 14 -8 10 -9 16 -1 21 5 3 10 19 10 34 0 15 13 48 29 74 35 53
47 153 22 173 -11 8 -11 15 -2 32 14 27 2 55 -18 43 -18 -11 -28 -145 -12
-155 6 -4 11 -20 11 -36 0 -23 -8 -35 -35 -52 -25 -17 -37 -33 -41 -58 -8 -40
-21 -60 -40 -60 -9 0 -14 11 -14 31 0 17 -4 28 -10 24 -5 -3 -10 -15 -10 -26
0 -11 -4 -18 -9 -14 -13 8 -7 193 8 238 7 21 11 52 9 68 -4 25 -2 28 14 23 27
-8 22 5 -7 16 -28 11 -30 21 -14 83 10 35 9 49 -4 77 -8 19 -19 50 -22 68 -4
18 -13 45 -21 60 -8 15 -14 33 -14 39 0 7 -14 20 -30 28 -31 16 -31 16 -24
-10 6 -25 -10 -37 -19 -12 -3 9 -7 9 -18 0 -10 -8 -14 -35 -14 -93 0 -69 3
-84 19 -96 18 -13 19 -21 10 -115 -8 -91 -4 -143 8 -108 9 25 19 2 12 -25 -4
-17 -12 -25 -19 -22 -18 7 -25 -15 -26 -82 -1 -65 -17 -46 -19 23 l-2 40 -14
-30 -15 -30 4 34 c3 26 0 35 -15 39 -12 3 -18 14 -18 33 0 15 -4 31 -10 34 -5
3 -10 17 -10 31 0 14 -4 22 -10 19 -6 -4 -10 6 -10 24 0 16 -3 37 -6 45 -5 14
-2 15 21 6 31 -12 75 -3 75 15 0 7 -8 23 -18 36 -30 40 -45 81 -32 89 8 5 6 9
-5 13 -12 5 -15 14 -9 43 l7 37 -36 -7 -36 -7 9 31 c7 23 5 30 -5 30 -30 0
-45 -13 -45 -40 0 -16 -4 -32 -10 -35 -5 -3 -10 3 -10 13 0 23 -25 46 -39 38
-5 -4 -13 -1 -17 5 -8 13 13 29 39 29 10 0 50 18 90 41 69 39 75 41 131 34 44
-5 67 -2 90 9 17 8 56 22 86 30 64 18 144 75 167 120 8 17 22 39 31 49 11 12
15 36 13 87 -2 73 -20 135 -65 230 -47 100 -26 106 28 7 14 -26 26 -56 26 -67
0 -11 9 -28 21 -39 13 -12 18 -24 13 -33 -15 -24 -11 -45 7 -41 13 4 22 -8 37
-49 11 -29 26 -66 33 -83 7 -16 14 -49 16 -72 3 -36 0 -43 -14 -44 -14 0 -13
-2 4 -9 13 -5 25 -21 29 -37 3 -15 8 -36 11 -45 3 -12 -1 -18 -13 -18 -16 0
-15 -3 4 -20 18 -17 25 -18 40 -9 11 7 27 9 36 6 15 -6 17 -23 16 -124 -1
-151 0 -154 33 -176 15 -11 27 -23 27 -27 0 -5 -13 -30 -30 -57 -29 -47 -60
-145 -60 -191 0 -12 8 -37 17 -55 14 -27 17 -56 15 -182 -2 -144 17 -474 38
-660 6 -49 15 -146 20 -215 5 -69 14 -177 20 -240 6 -63 13 -135 14 -160 2
-25 8 -72 14 -105 6 -33 18 -112 27 -175 9 -63 23 -155 31 -204 8 -49 14 -108
14 -130 0 -23 5 -59 10 -81 9 -44 26 -214 35 -366 3 -53 8 -107 10 -120 3 -13
6 -75 7 -136 l2 -113 82 0 82 0 -3 148 c-4 175 -13 316 -26 432 -6 47 -14 128
-19 180 -5 52 -18 163 -28 245 -11 83 -23 184 -26 225 -4 41 -11 109 -16 150
-6 41 -15 129 -20 195 -5 66 -19 207 -29 313 -20 185 -19 222 0 222 5 0 1 12
-10 28 -15 21 -22 57 -30 160 -7 89 -8 140 -1 152 7 13 7 21 0 25 -14 8 -13
68 2 83 8 8 8 15 -1 26 -10 11 -11 38 -7 98 9 105 13 118 34 112 14 -5 14 -3
-1 6 -20 13 -20 44 -1 332 6 87 6 87 30 78 32 -12 31 4 -1 18 -29 13 -32 25
-44 162 -12 142 -11 153 19 161 23 7 23 7 -6 8 -36 1 -44 14 -44 70 0 29 5 40
23 49 21 10 20 11 -10 11 -30 1 -31 3 -41 59 -7 40 -7 61 1 71 6 7 12 19 13
27 2 11 -2 11 -18 3 -11 -6 -21 -9 -22 -7 -11 15 -49 139 -49 161 0 15 -4 27
-8 27 -21 0 -7 31 17 41 15 5 25 12 22 15 -3 2 -16 1 -29 -4 -31 -12 -49 -5
-49 18 0 11 11 22 28 28 26 9 26 9 -16 16 -51 9 -80 48 -58 78 7 10 14 40 15
67 1 41 -2 49 -19 54 -12 3 -20 13 -20 26 0 27 7 27 29 -1 21 -25 51 -19 51
11 0 11 8 25 19 30 28 16 35 78 11 109 -11 13 -23 46 -26 73 -4 27 -11 52 -16
55 -5 3 0 17 13 30 l22 23 -24 25 c-13 14 -23 28 -23 33 1 4 28 21 60 38 31
16 62 39 68 50 6 10 19 26 30 35 21 18 33 100 15 100 -7 0 -8 14 -4 40 4 25 3
46 -4 54 -8 9 -8 29 -2 62 5 27 12 85 16 129 7 69 6 78 -7 68 -12 -11 -14 -8
-10 19 4 23 2 29 -8 23 -10 -6 -12 3 -6 42 6 51 4 65 -49 342 -34 176 -52 218
-153 363 -18 26 -49 78 -68 115 -61 115 -142 222 -172 229 -90 19 -162 82
-162 139 0 19 -6 35 -14 38 -17 7 -41 42 -51 76 -5 16 -4 21 4 17 7 -5 11 5
11 28 0 40 -14 48 -25 14 -6 -23 -7 -22 -17 5 -8 22 -16 27 -41 27 -35 0 -94
-32 -103 -54 -3 -8 -1 -24 6 -35 9 -19 8 -21 -14 -21 -14 0 -37 4 -51 10 -24
9 -26 13 -20 53 7 42 5 44 -24 57 -26 10 -31 18 -31 45 0 56 -19 95 -46 95
-39 0 -38 -23 5 -111 23 -46 41 -91 41 -100 0 -15 -3 -15 -35 -1 -19 9 -35 20
-35 25 0 4 -4 6 -10 2 -13 -8 -90 42 -90 60 0 9 -9 15 -24 15 -26 0 -79 48
-102 92 -28 53 -60 94 -71 91 -6 -2 -13 3 -16 12 -6 15 4 19 32 16 8 -2 5 6
-8 20 -11 12 -24 19 -28 15 -4 -4 -1 -11 7 -16 12 -8 10 -10 -7 -10 -30 0 -54
47 -60 122 -5 53 -8 58 -29 58 -17 0 -22 -4 -18 -15z m464 -331 c0 -8 -4 -12
-10 -9 -5 3 -10 13 -10 21 0 8 5 12 10 9 6 -3 10 -13 10 -21z m-1475 -244 c-4
-6 10 -10 34 -10 22 0 41 -5 44 -12 7 -22 -50 -48 -102 -48 l-49 0 19 40 c13
27 26 40 40 40 11 0 17 -4 14 -10z m1345 -15 c0 -12 -29 -3 -34 10 -4 13 -2
14 14 5 11 -6 20 -13 20 -15z m-1624 -56 c4 -7 -2 -9 -17 -7 -13 2 -25 11 -27
21 -3 16 -1 17 17 8 11 -6 23 -16 27 -22z m1754 -9 c0 -5 -2 -10 -4 -10 -3 0
-8 5 -11 10 -3 6 -1 10 4 10 6 0 11 -4 11 -10z m-1986 -28 c3 -5 -1 -9 -9 -9
-8 0 -12 4 -9 9 3 4 7 8 9 8 2 0 6 -4 9 -8z m266 -4 c0 -4 -7 -8 -15 -8 -8 0
-15 4 -15 8 0 5 7 9 15 9 8 0 15 -4 15 -9z m45 2 c3 -5 1 -10 -4 -10 -6 0 -11
5 -11 10 0 6 2 10 4 10 3 0 8 -4 11 -10z m-435 -30 c0 -5 -5 -10 -11 -10 -5 0
-7 5 -4 10 3 6 8 10 11 10 2 0 4 -4 4 -10z m430 -7 c0 -13 -14 -28 -27 -30
-15 -3 -15 -1 -7 21 6 16 34 23 34 9z m-6 -54 c18 -17 -1 -19 -53 -7 -34 7
-47 14 -39 20 15 10 78 1 92 -13z m1531 -9 c16 -17 16 -20 3 -15 -9 4 -19 13
-22 21 -7 19 -2 18 19 -6z m89 -62 c4 -17 2 -28 -4 -28 -5 0 -11 3 -11 8 -1 4
-3 23 -5 42 -4 39 9 24 20 -22z m-1944 12 c0 -5 -12 -10 -26 -10 -14 0 -23 4
-19 10 3 6 15 10 26 10 10 0 19 -4 19 -10z m-690 -30 c-9 -6 -19 -5 -25 1 -6
6 -5 13 5 19 9 6 19 5 25 -1 6 -6 5 -13 -5 -19z m565 -61 c5 -5 -5 -9 -27 -9
-43 0 -68 8 -68 22 0 12 80 1 95 -13z m637 -41 c9 -25 -3 -33 -42 -30 -49 5
-61 19 -23 28 15 3 33 7 38 9 18 6 23 5 27 -7z m112 -23 c3 -9 0 -15 -9 -15
-9 0 -12 6 -9 15 4 8 7 15 9 15 2 0 5 -7 9 -15z m68 -78 c-1 -4 14 -15 33 -23
20 -8 43 -22 53 -32 9 -9 28 -22 42 -29 l25 -12 -28 4 c-15 2 -41 14 -57 27
-15 13 -47 34 -69 48 -23 13 -39 30 -37 37 3 7 1 15 -5 18 -5 4 -7 11 -3 16 6
11 51 -41 46 -54z m1460 -15 c5 -5 12 -35 15 -66 3 -31 10 -56 14 -56 5 0 9
-10 9 -22 1 -30 25 -74 34 -60 8 13 -12 108 -31 145 -15 30 -12 44 6 32 6 -3
11 -14 11 -24 0 -10 11 -43 25 -72 23 -50 25 -51 21 -19 -3 19 -8 50 -12 68
-5 25 -3 32 10 32 10 0 16 -9 17 -22 0 -13 2 -32 5 -43 12 -61 16 -135 6 -135
-6 0 -13 8 -15 18 -3 9 -5 -2 -6 -25 -1 -41 12 -71 66 -152 13 -19 23 -47 23
-63 0 -26 -3 -29 -22 -23 -13 4 -27 11 -33 16 -5 5 -22 9 -38 9 -19 0 -30 6
-34 18 -3 14 -12 17 -36 14 -22 -2 -38 2 -49 15 -35 38 -88 323 -60 323 11 0
16 -12 27 -67 4 -18 10 -33 14 -33 15 0 44 -65 57 -128 14 -68 34 -105 34 -64
0 12 -5 22 -11 22 -5 0 -7 5 -4 10 6 10 -5 56 -24 105 -5 11 -14 43 -20 70 -7
28 -24 77 -37 110 -41 97 -41 96 -3 85 18 -5 37 -14 41 -18z m-2924 -42 c31
-41 27 -45 -13 -14 -19 14 -32 30 -29 35 9 15 19 10 42 -21z m2005 16 c15 -8
27 -11 27 -5 0 5 4 9 9 9 6 0 9 -9 8 -19 0 -11 -5 -17 -9 -15 -21 13 -5 -16
22 -39 17 -15 30 -24 30 -20 0 4 6 -2 14 -13 8 -10 13 -20 11 -22 -5 -6 -48
21 -98 61 -43 36 -47 37 -45 17 3 -25 20 -48 91 -121 65 -67 53 -75 -15 -9
-29 28 -74 68 -100 88 -27 20 -48 41 -48 46 0 16 42 56 59 56 9 0 28 -7 44
-14z m-344 -29 c8 -7 12 -7 9 -2 -3 6 8 11 28 12 39 2 46 -14 9 -23 -14 -3
-22 -10 -19 -15 3 -5 -3 -6 -13 -3 -28 9 -103 47 -103 52 0 8 75 -10 89 -21z
m513 -39 c12 -18 31 -42 41 -53 21 -22 40 -55 33 -55 -12 0 -116 113 -116 126
0 23 17 16 42 -18z m-223 -37 c54 -51 62 -78 21 -73 -31 3 -110 54 -110 70 0
14 22 52 30 52 3 0 29 -22 59 -49z m1184 -24 c1 -15 7 -23 15 -20 14 6 16 -16
2 -51 -5 -15 -5 -28 0 -31 4 -3 10 3 13 12 2 11 8 1 16 -26 7 -23 10 -45 7
-48 -3 -3 -19 9 -36 27 -28 30 -31 41 -35 108 -2 50 0 71 7 64 5 -5 11 -21 11
-35z m319 -13 c6 -67 -3 -126 -16 -105 -5 7 -8 34 -6 60 1 25 2 58 3 74 1 48
14 29 19 -29z m-3281 25 c9 -17 8 -23 -2 -30 -22 -14 -26 -11 -21 21 5 36 8
37 23 9z m3320 -92 c-13 -13 -14 5 -3 54 l7 34 3 -39 c2 -21 -1 -43 -7 -49z
m-1618 59 c10 -8 19 -23 20 -35 1 -12 7 -21 13 -21 7 0 27 -14 45 -32 17 -18
51 -45 75 -60 24 -15 44 -30 44 -33 0 -4 -3 -4 -7 -2 -55 28 -86 38 -95 29 -8
-8 -22 -3 -46 16 -19 15 -42 27 -51 27 -9 0 -15 8 -14 18 0 10 -1 16 -4 13 -8
-8 -30 18 -35 40 -3 16 18 51 32 53 3 0 13 -6 23 -13z m1442 6 c15 -11 13 -76
-2 -87 -11 -8 -12 -17 -3 -40 6 -15 8 -36 5 -44 -6 -13 -10 -12 -26 7 -14 18
-16 28 -9 42 6 10 10 44 10 74 0 55 5 63 25 48z m245 -8 c0 -8 -4 -12 -10 -9
-5 3 -10 10 -10 16 0 5 5 9 10 9 6 0 10 -7 10 -16z m-165 -4 c10 -16 -5 -50
-19 -44 -8 3 -11 15 -8 30 5 25 16 31 27 14z m-3297 -30 c12 -20 12 -21 -13
-4 -28 18 -31 24 -12 24 7 0 18 -9 25 -20z m3130 -19 c15 -49 15 -51 -2 -51
-14 0 -26 29 -26 68 0 35 16 26 28 -17z m335 9 c5 -21 -27 -67 -37 -52 -5 8
20 72 29 72 1 0 5 -9 8 -20z m-2534 -22 c-8 -14 -14 -18 -17 -10 -4 13 17 46
25 38 3 -2 -1 -15 -8 -28z m2233 -20 c-10 -22 -11 -21 -11 12 -1 26 2 31 11
22 8 -8 8 -17 0 -34z m-2692 11 c0 -6 -4 -7 -10 -4 -5 3 -10 11 -10 16 0 6 5
7 10 4 6 -3 10 -11 10 -16z m1613 -64 c17 -26 15 -25 -21 10 -23 21 -42 43
-42 49 0 13 38 -23 63 -59z m-1869 14 c14 -29 14 -30 -2 -24 -9 4 -25 10 -35
12 -17 5 -17 7 -1 24 9 11 18 19 20 19 1 0 9 -14 18 -31z m437 -10 c-5 -13
-10 -19 -10 -12 -1 15 10 45 15 40 3 -2 0 -15 -5 -28z m-363 -34 c2 -12 -6
-26 -20 -34 -20 -13 -22 -13 -10 1 10 13 9 18 -3 28 -8 7 -12 17 -9 22 10 16
39 4 42 -17z m2023 -57 c5 -10 8 -18 5 -18 -7 0 -66 87 -66 96 0 9 45 -50 61
-78z m-415 45 c-7 -7 -26 7 -26 19 0 6 6 6 15 -2 9 -7 13 -15 11 -17z m1364
-50 c0 -7 -4 -13 -10 -13 -5 0 -10 12 -10 28 0 21 2 24 10 12 5 -8 10 -21 10
-27z m-2935 17 c5 -8 11 -8 20 0 9 8 11 5 8 -13 -3 -14 5 -33 22 -52 16 -19
24 -37 20 -50 -2 -11 -5 -47 -5 -80 0 -54 -3 -61 -25 -71 -41 -20 -47 7 -15
81 20 46 20 48 1 88 -10 23 -30 53 -45 66 -14 14 -26 28 -26 33 0 12 38 10 45
-2z m2048 -113 c60 -81 207 -311 207 -323 0 -7 -7 -14 -15 -18 -21 -8 -19 -19
12 -71 30 -48 49 -60 38 -22 -6 20 -6 20 8 7 19 -18 44 -106 33 -117 -4 -4
-11 -2 -15 6 -9 13 -21 -31 -21 -75 0 -12 -14 -48 -30 -78 -25 -45 -29 -60
-20 -76 14 -27 -7 -27 -62 0 -31 15 -45 17 -55 8 -10 -8 -18 -7 -31 4 -38 34
-106 42 -190 22 -13 -2 -29 -1 -35 4 -7 5 -48 24 -92 42 -91 36 -120 57 -65
45 19 -4 51 -8 71 -11 20 -2 60 -13 89 -24 29 -11 57 -19 63 -17 11 3 -57 47
-74 47 -5 0 -17 4 -27 9 -29 16 -126 58 -149 65 -13 4 -23 12 -23 17 0 11 13
12 25 0 6 -4 30 -13 55 -19 40 -10 43 -9 26 4 -11 8 -25 14 -32 14 -6 0 -14 7
-18 15 -7 19 -8 19 55 -9 61 -27 90 -38 104 -41 19 -4 75 -42 70 -47 -3 -2 2
-5 10 -5 10 0 12 4 5 12 -16 19 -162 103 -206 119 -64 23 -152 80 -96 63 9 -3
53 -19 96 -36 44 -17 82 -29 83 -27 2 2 -13 14 -34 26 -61 35 -72 40 -85 40
-7 0 -26 11 -43 25 l-30 24 30 -8 c17 -5 55 -21 85 -35 101 -48 105 -25 5 30
-89 49 -130 77 -118 81 13 5 26 -1 127 -57 32 -18 57 -27 54 -20 -2 7 -28 25
-57 40 -60 32 -76 45 -43 37 27 -6 28 4 2 28 -11 10 -20 23 -20 28 0 6 8 3 18
-5 9 -9 31 -22 47 -31 17 -8 43 -27 58 -41 34 -31 52 -34 37 -6 -6 10 -42 41
-80 67 -38 26 -66 49 -61 51 10 3 35 -9 120 -63 30 -19 58 -32 62 -29 14 8 -3
35 -18 30 -8 -3 -35 8 -59 25 -45 31 -55 51 -15 29 17 -9 21 -8 21 4 0 9 -11
18 -25 22 -29 7 -32 19 -9 28 16 6 24 2 83 -53 37 -33 81 -64 81 -55 0 3 8 1
18 -6 9 -8 -20 24 -66 70 -73 74 -81 85 -68 98 13 13 23 8 86 -43 39 -32 79
-69 89 -82 11 -12 22 -23 26 -23 12 0 -64 92 -120 145 -35 33 -54 61 -58 83
-5 24 -3 32 8 32 12 0 14 7 9 27 l-7 27 31 -24 c17 -14 33 -37 37 -51 3 -14
12 -26 20 -26 19 0 19 11 0 27 -8 7 -15 18 -15 24 0 7 -11 23 -25 36 -18 17
-23 31 -20 54 2 17 4 37 4 44 1 19 80 -51 124 -111z m-1790 48 c-20 -27 -33
-32 -33 -12 0 10 18 23 48 36 2 0 -5 -10 -15 -24z m333 -99 c-4 -18 -34 -62
-71 -105 -68 -78 -69 -82 -25 -129 l21 -22 -43 -50 c-24 -28 -48 -50 -54 -50
-6 0 -17 -11 -24 -25 -16 -30 -17 -30 -58 -5 -44 27 -74 77 -61 102 5 10 7 23
3 29 -4 7 1 9 15 4 16 -5 21 -2 21 13 0 11 6 25 14 31 11 9 21 3 49 -31 20
-23 38 -40 41 -37 10 9 -30 119 -48 132 -16 12 -14 15 27 37 43 23 47 23 65 7
23 -21 32 -22 32 -2 0 8 -5 15 -10 15 -6 0 -3 11 6 25 13 20 20 23 35 14 16
-8 19 -6 19 13 0 13 9 31 20 41 12 10 21 31 21 49 2 33 2 33 6 4 3 -16 2 -43
-1 -60z m1966 1 c7 -15 3 -28 -19 -60 -15 -23 -31 -43 -35 -45 -5 -2 -8 -10
-8 -17 0 -8 -7 -11 -20 -8 -18 5 -20 14 -20 103 0 70 4 100 13 103 13 5 72
-46 89 -76z m188 50 c0 -5 -4 -5 -10 -2 -5 3 -10 14 -10 23 0 15 2 15 10 2 5
-8 10 -19 10 -23z m-2530 13 c19 -12 7 -22 -43 -39 -26 -8 -42 -10 -49 -3 -6
6 3 12 26 16 22 4 36 13 36 21 0 17 9 19 30 5z m2853 -30 c-3 -11 -7 -20 -9
-20 -2 0 -4 9 -4 20 0 11 4 20 9 20 5 0 7 -9 4 -20z m-3393 -20 c6 -12 10 -35
8 -53 -3 -32 -3 -32 -16 -9 -16 28 -24 82 -12 82 5 0 14 -9 20 -20z m3216 -43
c-8 -38 -45 -92 -46 -65 0 9 4 19 9 22 5 3 14 27 21 53 13 51 26 43 16 -10z
m-235 6 c-9 -16 -10 -14 -11 12 0 21 3 26 11 18 8 -8 8 -16 0 -30z m399 19 c0
-14 -61 -105 -66 -99 -5 5 54 107 62 107 2 0 4 -4 4 -8z m-3215 -79 c11 -22
22 -33 30 -29 10 3 16 -6 21 -32 3 -20 13 -48 21 -61 14 -22 14 -24 -3 -18
-73 21 -127 47 -141 67 -9 13 -11 20 -5 16 7 -4 13 -4 13 1 7 50 6 63 -4 63
-17 1 19 27 37 27 9 0 23 -16 31 -34z m-148 -15 c-3 -8 -6 -5 -6 6 -1 11 2 17
5 13 3 -3 4 -12 1 -19z m2928 -7 c9 -41 -13 -121 -34 -121 -9 0 -27 -7 -39
-16 -21 -15 -22 -14 -22 16 0 44 56 146 82 149 3 1 9 -12 13 -28z m139 -128
c-14 -10 -20 -11 -23 -2 -2 7 5 18 15 26 14 10 20 11 23 2 2 -7 -5 -18 -15
-26z m82 1 c-11 -7 -22 -12 -25 -9 -2 3 4 12 15 19 10 8 21 12 24 9 3 -2 -4
-11 -14 -19z m-2688 -41 c2 -13 -2 -23 -8 -23 -6 0 -8 -4 -5 -10 3 -5 -1 -10
-9 -10 -9 0 -16 -4 -16 -10 0 -5 7 -10 15 -10 8 0 15 -1 15 -3 0 -1 4 -16 9
-32 8 -28 6 -30 -15 -30 -13 1 -27 5 -31 8 -3 4 -14 7 -24 7 -40 0 -67 22 -82
69 -11 33 -12 48 -3 53 18 12 81 9 95 -4 7 -7 12 -8 11 -3 -4 21 1 26 23 23
14 -2 23 -11 25 -25z m502 -117 c0 -6 7 -3 14 7 19 24 21 22 36 -25 8 -24 18
-49 23 -56 6 -7 7 -16 3 -20 -4 -4 -14 1 -21 11 -7 10 -15 18 -17 17 -14 -5
-38 15 -33 28 4 10 -14 36 -52 75 l-58 60 53 -43 c28 -24 52 -48 52 -54z
m1090 -261 c14 -4 39 -13 55 -21 75 -33 143 -54 178 -54 25 0 43 -7 54 -20 10
-11 23 -20 30 -20 20 0 15 -35 -7 -55 -19 -18 -21 -17 -56 1 -35 19 -36 19
-50 -1 -13 -18 -13 -21 6 -29 25 -11 26 -23 3 -29 -14 -4 -13 -5 4 -6 31 -1
37 -18 10 -25 -27 -7 -257 -7 -239 1 18 7 15 20 -8 26 -18 5 -19 9 -9 33 13
35 25 43 64 45 26 0 25 2 -14 12 -58 16 -66 37 -14 38 l38 1 -47 20 c-57 24
-67 53 -15 43 17 -4 39 -9 49 -11 9 -3 19 -1 22 4 3 5 -21 17 -54 26 -33 9
-60 22 -60 27 0 6 8 8 18 5 9 -2 28 -8 42 -11z m-1031 -134 c7 -5 12 -13 10
-18 -2 -6 -13 -2 -23 8 -20 19 -12 26 13 10z m1541 -31 l21 -30 -23 -23 c-16
-16 -46 -27 -95 -36 -64 -13 -73 -12 -88 3 -9 9 -13 16 -9 16 3 0 1 6 -5 13
-6 8 -8 17 -4 20 10 11 51 8 58 -3 9 -15 25 -12 25 5 0 23 49 65 76 65 14 0
31 -12 44 -30z m-1650 -8 c0 -15 -2 -15 -10 -2 -13 20 -13 33 0 25 6 -3 10
-14 10 -23z m-355 -10 c11 -3 34 -14 51 -24 18 -10 63 -25 100 -33 89 -19 196
-54 166 -54 -13 -1 -20 -5 -17 -11 4 -6 10 -8 15 -5 14 9 57 -16 68 -39 21
-41 41 -96 35 -96 -3 0 -1 -6 5 -12 14 -18 -2 -55 -27 -63 -23 -7 -28 -31 -9
-37 22 -8 68 16 68 34 0 26 25 12 43 -25 40 -83 69 -157 60 -157 -4 0 -23 11
-43 25 -35 24 -98 46 -190 66 -68 14 -74 17 -61 33 17 20 -13 160 -44 208 -37
55 -93 104 -150 129 -27 12 -62 28 -77 35 -14 8 -38 14 -51 14 -27 0 -42 14
-32 29 3 6 18 6 38 -1 17 -5 41 -12 52 -16z m468 -62 c-8 -17 -19 -28 -24 -25
-10 7 18 55 31 55 5 0 2 -14 -7 -30z m187 20 c13 -8 13 -10 -2 -10 -9 0 -20 5
-23 10 -8 13 5 13 25 0z m66 0 c-4 8 -1 7 7 -3 8 -10 17 -14 18 -9 5 13 69 24
69 12 0 -6 3 -9 8 -8 7 2 86 -10 112 -18 11 -3 14 -15 12 -46 -3 -39 1 -47 45
-93 26 -27 53 -61 59 -75 31 -70 42 -85 74 -105 19 -13 48 -37 64 -54 l30 -31
-30 0 c-20 0 -25 3 -15 9 9 6 10 11 2 15 -6 4 -14 0 -17 -8 -3 -9 -16 -15 -27
-14 -12 1 -37 -2 -54 -6 -34 -8 -39 -2 -27 28 4 11 19 16 47 16 22 0 38 3 35
6 -8 7 -82 15 -145 14 -33 0 -53 4 -53 11 0 6 9 9 20 6 14 -3 20 0 20 10 0 11
-7 14 -25 10 -18 -3 -29 1 -35 13 -5 10 -7 19 -5 22 3 3 -1 5 -7 6 -7 0 -37 5
-65 10 -29 5 -54 7 -56 5 -2 -2 -2 -15 1 -28 5 -27 22 -35 22 -10 0 27 28 13
60 -28 13 -18 11 -18 -36 -12 -95 13 -140 46 -89 65 26 10 34 22 13 19 -40 -5
-58 2 -58 22 0 16 4 19 20 14 11 -4 20 -2 20 4 0 6 -6 11 -12 11 -7 0 -21 16
-30 34 -14 28 -15 42 -6 72 5 21 8 55 5 75 -6 44 0 54 21 36 13 -10 15 -9 8 3z
m-135 -26 c10 -9 16 -20 14 -24 -3 -5 1 -11 7 -14 7 -3 4 -4 -7 -3 -11 1 -22
5 -25 8 -3 3 -23 18 -45 33 l-40 27 39 -5 c21 -3 46 -12 57 -22z m1484 -110
c8 -28 15 -63 15 -76 0 -12 5 -30 10 -38 9 -13 10 -13 10 0 0 9 20 23 51 34
47 16 55 16 88 3 20 -9 43 -17 52 -20 26 -8 88 -121 77 -141 -5 -9 -5 -16 0
-16 14 0 48 -88 66 -166 29 -128 17 -365 -20 -426 -6 -9 -10 -6 -15 12 -7 24
-7 24 -8 -5 -2 -32 -34 -84 -44 -69 -3 5 -2 28 3 52 7 40 -1 64 -15 43 -15
-25 -34 -91 -23 -85 6 4 9 1 7 -5 -3 -7 -7 -11 -11 -9 -3 2 -18 -8 -32 -21
-30 -29 -31 -27 -11 29 19 54 14 61 -11 15 -25 -47 -36 -44 -28 8 4 31 3 38
-5 27 -6 -8 -11 -22 -11 -31 0 -9 -8 -27 -18 -39 l-18 -23 4 39 c2 29 1 35 -7
24 -6 -8 -11 -22 -11 -30 0 -9 -5 -21 -12 -28 -10 -10 -15 -7 -25 10 -13 22
-13 22 -7 -4 4 -18 2 -28 -5 -28 -7 0 -11 -6 -9 -13 2 -6 -8 -23 -21 -36 -20
-20 -23 -21 -17 -5 21 51 26 85 17 116 l-9 33 -1 -45 c-1 -49 -20 -95 -36 -89
-5 2 -9 6 -8 9 1 3 4 23 7 45 l6 40 -16 -35 c-20 -43 -43 -70 -61 -70 -11 0
-11 4 -2 21 8 16 8 23 -1 29 -9 5 -9 17 -1 46 14 50 14 51 -4 51 -8 0 -13 -3
-11 -6 2 -3 -26 -34 -61 -69 -62 -62 -86 -71 -39 -15 13 15 31 44 40 63 l17
35 -31 -35 c-17 -19 -35 -35 -41 -35 -6 0 -16 -8 -23 -17 -7 -10 -16 -18 -20
-18 -4 0 4 15 17 33 39 52 42 64 9 33 -37 -35 -43 -21 -9 21 13 15 34 46 47
68 l23 40 -26 -24 c-33 -30 -36 -21 -4 11 12 13 22 28 22 33 0 6 9 27 19 48
29 59 11 56 -48 -9 -30 -32 -57 -56 -62 -51 -4 4 6 22 23 40 17 17 38 48 47
67 9 19 11 27 4 17 -24 -34 -134 -144 -164 -163 l-29 -19 18 28 c10 15 17 33
15 40 -3 16 26 62 72 112 20 22 49 58 64 80 21 29 11 22 -37 -27 -41 -42 -74
-68 -87 -68 -20 0 -20 1 -6 16 9 8 14 20 10 25 -3 6 0 16 6 24 19 23 -15 19
-59 -6 -31 -18 -28 -14 19 30 30 28 58 51 63 51 4 0 7 5 7 11 0 6 -12 1 -26
-10 -15 -12 -32 -21 -38 -21 -6 0 -36 -20 -67 -44 -75 -59 -99 -71 -109 -56
-4 7 -12 10 -18 6 -6 -3 -13 -2 -16 3 -7 11 17 31 79 67 28 16 59 37 70 47 11
11 43 35 72 53 28 19 55 39 59 46 4 6 -6 3 -22 -9 -16 -11 -40 -24 -54 -28
-14 -4 -33 -14 -42 -22 -23 -21 -96 -34 -102 -19 -3 7 -8 6 -15 -4 -6 -8 -11
-11 -11 -6 0 4 -12 1 -26 -9 -14 -9 -28 -14 -31 -12 -3 3 10 13 29 23 31 16
134 87 182 127 21 17 21 17 -5 8 -15 -5 -30 -7 -33 -4 -3 4 -6 2 -6 -4 0 -13
-21 -22 -69 -29 -20 -3 -57 -12 -83 -20 -25 -8 -70 -17 -100 -18 -29 -2 -68
-7 -85 -11 -35 -8 -40 0 -19 28 14 19 103 26 91 7 -10 -16 21 -12 35 5 9 10 9
15 1 15 -6 0 -11 4 -11 8 0 10 29 23 157 73 45 17 88 38 94 45 12 15 8 15 -36
-2 -11 -4 -29 -9 -40 -11 -11 -2 -38 -11 -60 -19 -42 -17 -77 -25 -108 -25
-12 0 -17 -5 -14 -14 4 -9 -8 -16 -38 -24 -53 -13 -65 -14 -65 -2 0 5 21 14
48 21 l47 12 -30 12 c-19 9 -34 10 -42 4 -15 -12 -36 -1 -27 13 3 6 23 9 43 8
25 -2 47 4 67 18 16 11 32 21 37 21 25 0 80 15 104 28 28 16 28 16 -17 9 -57
-8 -51 -2 41 35 41 17 90 43 109 59 54 42 58 43 109 30 47 -12 50 -11 114 25
78 43 89 56 48 56 -37 0 -41 17 -7 30 13 5 27 14 32 21 4 8 3 10 -4 5 -7 -4
-12 -3 -12 2 0 14 50 33 70 27 10 -3 22 0 26 6 10 18 30 -14 49 -77z m-1405
38 c-20 -7 -40 7 -34 23 6 14 9 14 26 -2 12 -10 15 -19 8 -21z m2255 28 c3 -5
-1 -10 -10 -10 -9 0 -13 5 -10 10 3 6 8 10 10 10 2 0 7 -4 10 -10z m-2365 -20
c0 -5 -2 -10 -4 -10 -3 0 -8 5 -11 10 -3 6 -1 10 4 10 6 0 11 -4 11 -10z
m2258 -5 c2 -2 1 -8 -3 -14 -10 -18 -34 -12 -46 10 -10 20 -9 21 17 15 16 -4
31 -9 32 -11z m-3018 -5 c0 -5 -4 -10 -10 -10 -5 0 -10 5 -10 10 0 6 5 10 10
10 6 0 10 -4 10 -10z m3047 -50 c24 0 83 -48 83 -69 0 -6 -16 1 -36 14 -20 14
-47 25 -58 25 -23 0 -46 17 -46 33 0 5 7 6 16 3 9 -3 27 -6 41 -6z m-3595 -15
c0 -5 -5 -11 -11 -13 -6 -2 -11 4 -11 13 0 9 5 15 11 13 6 -2 11 -8 11 -13z
m3722 -10 c11 -8 16 -15 11 -15 -4 0 0 -10 11 -21 19 -21 19 -21 0 -18 -11 2
-28 19 -39 37 -20 34 -14 40 17 17z m-1109 -5 c7 -11 -71 -33 -87 -24 -17 10
20 34 53 34 15 0 30 -4 34 -10z m982 -33 c4 -7 0 -8 -11 -4 -10 4 -24 7 -32 7
-9 0 -13 4 -10 9 7 11 44 3 53 -12z m-3567 -6 c0 -17 -12 -41 -21 -41 -7 0 -7
24 0 48 2 7 21 1 21 -7z m3583 -71 c13 -34 13 -40 1 -40 -7 0 -23 8 -34 18
-11 9 -30 19 -42 22 -20 5 -20 6 -4 23 31 30 61 22 79 -23z m157 18 c0 -13
-23 -5 -28 10 -2 7 2 10 12 6 9 -3 16 -11 16 -16z m-3804 -19 c8 -14 -11 -33
-25 -25 -11 7 -4 36 9 36 5 0 12 -5 16 -11z m3589 -29 c3 -5 2 -10 -4 -10 -5
0 -13 5 -16 10 -3 6 -2 10 4 10 5 0 13 -4 16 -10z m85 -60 c0 -5 -7 -10 -15
-10 -8 0 -15 5 -15 10 0 6 7 10 15 10 8 0 15 -4 15 -10z m-2036 -25 c3 -8 13
-15 23 -16 15 0 14 -2 -4 -9 -23 -10 -63 -3 -63 11 0 5 6 9 13 9 8 0 7 4 -3
10 -12 8 -11 10 6 10 12 0 24 -7 28 -15z m56 5 c0 -5 -7 -10 -15 -10 -8 0 -15
5 -15 10 0 6 7 10 15 10 8 0 15 -4 15 -10z m105 0 c-3 -5 -15 -10 -26 -10 -11
0 -17 5 -14 10 3 6 15 10 26 10 11 0 17 -4 14 -10z m1905 -5 c6 -8 10 -21 8
-29 -3 -13 -7 -12 -27 3 -13 10 -21 23 -17 30 10 15 21 14 36 -4z m-1960 -15
c12 -8 11 -10 -7 -10 -12 0 -25 5 -28 10 -8 13 15 13 35 0z m-1390 -10 c19 -6
66 -13 104 -16 37 -2 72 -6 76 -9 16 -10 22 -112 10 -151 -11 -32 -10 -39 4
-50 24 -17 56 -6 57 20 0 11 3 15 6 9 2 -7 11 -13 19 -13 9 0 12 -4 9 -10 -3
-5 -2 -10 2 -10 5 0 6 -21 3 -47 -3 -27 -9 -48 -15 -48 -37 1 -115 17 -120 25
-3 6 -18 10 -33 10 -21 0 -24 2 -12 10 23 16 -6 30 -61 30 -51 0 -59 8 -59 63
0 18 -7 45 -15 61 -8 15 -15 40 -16 55 0 14 -3 21 -5 14 -6 -13 -34 -6 -34 7
0 22 21 60 32 60 7 0 29 -5 48 -10z m-100 -20 c0 -5 -5 -10 -11 -10 -5 0 -7 5
-4 10 3 6 8 10 11 10 2 0 4 -4 4 -10z m1740 -10 c0 -4 -23 -12 -52 -18 -50
-10 -51 -9 -29 7 23 17 81 25 81 11z m-350 -25 c-31 -18 -37 -18 -37 -2 0 6
14 13 31 14 l31 2 -25 -14z m385 -25 c-3 -5 -11 -10 -16 -10 -6 0 -7 5 -4 10
3 6 11 10 16 10 6 0 7 -4 4 -10z m-138 -21 c-14 -8 -22 -8 -30 0 -8 8 -3 11
19 11 25 -1 27 -2 11 -11z m-1034 -31 c20 -10 37 -23 37 -29 0 -6 -6 -6 -18 0
-11 6 -24 6 -33 0 -11 -7 -9 -9 7 -9 12 0 27 -7 34 -15 10 -13 9 -15 -12 -15
-13 0 -33 7 -44 15 -12 8 -24 12 -26 10 -3 -3 -12 13 -21 35 l-15 40 26 -6
c15 -4 44 -15 65 -26z m1467 -4 c0 -8 -91 -46 -97 -41 -3 3 12 15 34 26 38 20
63 26 63 15z m-1045 -45 c5 -5 15 -9 23 -9 8 0 27 -9 42 -20 17 -12 35 -17 46
-13 12 4 15 3 10 -5 -4 -7 -28 -12 -54 -13 l-47 -1 58 -13 c66 -14 98 -35 54
-35 -15 0 -27 -5 -27 -11 0 -6 9 -9 20 -6 11 3 20 0 20 -5 0 -16 -96 0 -133
22 -18 11 -45 20 -60 20 -16 0 -37 10 -50 24 -35 38 -67 77 -67 83 0 9 154 -7
165 -18z m872 -26 c-9 -9 -20 -13 -24 -9 -4 4 -1 11 7 16 25 16 35 11 17 -7z
m-1261 -48 c15 -11 16 -14 3 -15 -8 0 -24 7 -35 15 -15 11 -16 14 -3 15 8 0
24 -7 35 -15z m314 -91 c0 -19 -26 -18 -34 1 -4 13 -10 14 -26 5 -12 -6 -20
-7 -20 -1 0 5 -3 16 -6 25 -5 14 -1 14 40 0 25 -9 46 -22 46 -30z m270 16 c0
-5 -2 -10 -4 -10 -3 0 -8 5 -11 10 -3 6 -1 10 4 10 6 0 11 -4 11 -10z m-225
-20 c-3 -5 -13 -10 -21 -10 -8 0 -14 5 -14 10 0 6 9 10 21 10 11 0 17 -4 14
-10z m98 -36 c25 -8 21 -33 -5 -32 -36 1 -118 29 -118 40 0 9 79 4 123 -8z
m-748 -14 c3 -5 1 -10 -4 -10 -6 0 -11 5 -11 10 0 6 2 10 4 10 3 0 8 -4 11
-10z m825 -45 c0 -11 -19 -21 -60 -30 -8 -2 -18 1 -21 7 -6 9 -11 9 -21 0 -15
-12 -48 1 -35 14 20 20 137 27 137 9z m1036 -12 c-10 -10 -19 5 -10 18 6 11 8
11 12 0 2 -7 1 -15 -2 -18z m-1683 10 c-7 -2 -19 -2 -25 0 -7 3 -2 5 12 5 14
0 19 -2 13 -5z m1657 -13 c0 -5 -5 -10 -11 -10 -5 0 -7 5 -4 10 3 6 8 10 11
10 2 0 4 -4 4 -10z m-890 -10 c0 -5 -7 -10 -16 -10 -8 0 -12 5 -9 10 3 6 10
10 16 10 5 0 9 -4 9 -10z m-877 -17 c-7 -2 -19 -2 -25 0 -7 3 -2 5 12 5 14 0
19 -2 13 -5z m-43 -13 c0 -5 -2 -10 -4 -10 -3 0 -8 5 -11 10 -3 6 -1 10 4 10
6 0 11 -4 11 -10z m780 -3 c0 -4 5 -5 12 -1 6 4 8 3 5 -3 -6 -9 -24 -10 -60
-4 -5 0 -6 5 -3 9 6 10 46 10 46 -1z m1030 -37 c0 -5 -8 -10 -17 -10 -15 0
-16 2 -3 10 19 12 20 12 20 0z m1207 -12 c-3 -8 -6 -5 -6 6 -1 11 2 17 5 13 3
-3 4 -12 1 -19z m-3151 -43 c-10 -8 -23 -12 -28 -9 -14 9 2 24 25 24 21 -1 21
-1 3 -15z m379 -15 c-3 -5 -14 -10 -23 -10 -15 0 -15 2 -2 10 20 13 33 13 25
0z m83 -23 c16 0 -23 -42 -64 -68 -18 -10 -39 -17 -47 -13 -9 3 -24 1 -35 -5
-15 -8 -20 -8 -18 2 3 23 17 37 37 37 11 0 22 7 25 15 9 21 56 46 74 38 8 -3
21 -6 28 -6z m92 -7 c8 -5 12 -10 8 -11 -20 -4 -24 -6 -46 -18 -22 -12 -23
-11 -13 7 6 11 7 22 4 26 -10 10 31 7 47 -4z m-620 -50 c0 -5 -5 -10 -11 -10
-5 0 -7 5 -4 10 3 6 8 10 11 10 2 0 4 -4 4 -10z m887 -72 c47 -17 41 -24 -17
-20 -47 4 -59 10 -43 25 9 10 22 9 60 -5z m-87 -8 c0 -5 -7 -10 -15 -10 -8 0
-15 5 -15 10 0 6 7 10 15 10 8 0 15 -4 15 -10z m1550 -112 c0 -15 5 -19 20
-15 11 3 23 1 26 -4 3 -5 -2 -9 -10 -9 -9 0 -16 -4 -16 -10 0 -20 -18 -9 -24
14 -3 13 -9 32 -13 42 -4 12 -3 15 5 10 7 -4 12 -16 12 -28z m-1251 -171 c6
-8 8 -17 4 -21 -4 -4 4 -3 19 3 14 5 29 7 34 3 4 -4 4 -2 0 5 -3 6 -2 14 2 17
12 7 34 -36 32 -60 -5 -41 1 -100 10 -114 9 -13 11 -13 20 0 7 12 12 12 21 3
10 -10 9 -14 -5 -19 -11 -4 -15 -13 -10 -28 5 -16 4 -18 -6 -9 -7 6 -18 9 -25
6 -7 -2 -16 5 -20 16 -3 12 -13 21 -21 21 -10 0 -14 13 -14 47 0 42 -4 50 -46
88 -31 29 -42 44 -33 48 22 9 26 8 38 -6z m2381 -17 c0 -5 -7 -7 -15 -4 -8 4
-15 8 -15 10 0 2 7 4 15 4 8 0 15 -4 15 -10z m-2076 -87 c-4 -13 -9 -21 -13
-19 -4 3 -20 -6 -37 -20 -16 -14 -24 -23 -18 -20 6 3 10 -9 11 -30 1 -22 -3
-34 -10 -31 -7 2 -13 31 -13 73 -1 51 0 63 7 45 15 -38 22 -16 9 24 -13 41 -6
61 9 24 10 -24 10 -24 10 -2 1 16 6 21 16 17 9 -4 15 0 16 7 0 8 5 1 10 -16 4
-16 6 -39 3 -52z m509 40 c6 -15 20 -35 29 -45 15 -15 16 -20 2 -48 -9 -16
-15 -45 -14 -63 3 -50 2 -50 -37 -13 -21 20 -44 36 -50 36 -21 0 -15 15 22 53
39 40 42 47 20 47 -8 0 -15 8 -16 18 0 13 -2 12 -9 -5 -9 -22 -62 -43 -109
-43 -39 0 -100 22 -106 38 -8 20 -1 25 40 28 27 3 37 -2 46 -19 12 -21 12 -21
20 -2 4 11 8 14 8 6 1 -11 5 -10 21 4 18 16 64 32 103 34 10 1 23 -11 30 -26z
m-343 -29 c0 -8 -5 -12 -10 -9 -6 4 -8 11 -5 16 9 14 15 11 15 -7z m930 -48
c0 -37 -10 -56 -30 -56 -17 0 -18 23 -5 68 8 23 35 13 35 -12z m50 -5 c0 -11
-4 -23 -10 -26 -6 -4 -10 5 -10 19 0 14 5 26 10 26 6 0 10 -9 10 -19z m-840 0
c8 -6 14 -24 13 -45 -1 -20 3 -39 8 -42 5 -3 9 -17 9 -31 0 -21 3 -23 14 -14
11 10 16 8 24 -6 10 -17 11 -17 29 0 26 22 42 22 40 -2 -1 -19 -37 -38 -37
-21 0 13 -43 -1 -66 -22 -20 -18 -21 -18 -38 1 -16 18 -16 21 -1 51 17 33 14
62 -7 58 -15 -4 -33 44 -25 66 7 18 16 20 37 7z m890 -11 c0 -5 -5 -10 -11
-10 -5 0 -7 5 -4 10 3 6 8 10 11 10 2 0 4 -4 4 -10z m-1522 -71 c-10 -5 -18
-15 -18 -22 0 -7 4 -6 10 3 8 13 10 13 10 -1 0 -9 -9 -19 -20 -22 -12 -3 -20
-14 -20 -26 0 -32 -18 -25 -28 12 -8 29 -6 33 22 49 34 19 75 26 44 7z m90
-63 c-10 -8 -14 -21 -11 -37 7 -35 -24 -48 -37 -16 -7 17 -4 26 16 42 13 12
24 27 24 35 0 11 2 12 13 1 10 -10 9 -15 -5 -25z m131 12 c0 -13 -4 -32 -8
-43 -4 -11 -2 -39 6 -63 8 -28 10 -56 5 -76 -8 -30 -8 -30 -21 19 -6 28 -16
64 -21 81 -14 44 -12 65 7 86 22 24 33 23 32 -4z m-181 -125 c-2 -14 -8 -28
-15 -30 -8 -3 -12 12 -11 47 0 48 1 50 15 31 8 -12 13 -33 11 -48z m-489 -152
c-6 -18 -13 -30 -15 -28 -2 2 1 18 7 36 6 18 13 30 15 28 2 -2 -1 -18 -7 -36z
m551 -41 c8 -5 9 -16 5 -30 -5 -15 -4 -20 4 -16 6 4 11 2 11 -3 0 -17 -15 -13
-38 12 -24 26 -40 77 -23 77 6 0 11 8 12 18 1 9 5 2 9 -17 4 -18 13 -37 20
-41z m244 36 c-6 -15 -24 -23 -24 -11 0 8 24 34 28 30 1 -1 0 -10 -4 -19z
m-350 -75 c14 -27 26 -63 26 -81 0 -27 3 -30 14 -21 11 10 17 3 29 -34 9 -25
14 -45 13 -45 -2 0 -23 7 -47 15 -47 17 -121 82 -145 127 -19 37 -19 82 1 74
8 -3 15 -1 15 5 0 6 8 6 21 -1 19 -10 20 -10 10 9 -16 30 -14 33 13 16 12 -8
35 -37 50 -64z m1936 18 c0 -6 -4 -7 -10 -4 -5 3 -10 11 -10 16 0 6 5 7 10 4
6 -3 10 -11 10 -16z m-3090 -44 c-7 -8 -17 -12 -22 -9 -6 4 -5 10 3 15 22 14
33 10 19 -6z m201 -58 c-11 -24 -21 -50 -21 -59 0 -9 -7 -18 -14 -21 -10 -4
-13 -1 -10 8 3 7 1 23 -5 34 -10 17 -9 20 4 15 8 -4 15 -1 15 5 0 15 42 72 48
66 2 -2 -5 -24 -17 -48z m1089 48 c0 -2 -10 -10 -22 -16 -21 -11 -22 -11 -9 4
13 16 31 23 31 12z m-1400 -51 c0 -11 -5 -11 -25 -2 -24 11 -32 28 -18 41 9 9
43 -22 43 -39z m176 26 c16 15 34 5 34 -19 0 -10 9 -44 20 -76 23 -65 27 -103
8 -70 -6 11 -14 22 -17 25 -12 10 -71 130 -70 143 0 9 2 9 6 -1 4 -10 8 -10
19 -2z m-123 -59 c7 -15 10 -37 6 -51 -7 -29 -15 -16 -23 38 -2 18 -10 41 -18
50 -12 15 -11 16 4 3 10 -7 24 -25 31 -40z m-113 29 c0 -5 -5 -10 -11 -10 -5
0 -7 5 -4 10 3 6 8 10 11 10 2 0 4 -4 4 -10z m689 -63 c-2 -42 2 -61 20 -85
21 -30 21 -33 7 -54 -9 -12 -16 -30 -16 -40 0 -15 -27 -38 -44 -38 -11 0 -6
95 9 180 8 47 15 86 15 88 0 1 3 2 6 2 3 0 4 -24 3 -53z m367 -156 c38 -82 40
-88 21 -72 -8 6 -17 8 -20 4 -4 -3 -7 1 -7 11 0 12 -7 16 -22 14 -20 -3 -25 5
-39 58 -9 33 -22 70 -28 82 -16 30 -14 39 4 16 14 -18 14 -18 15 6 0 24 1 23
21 -10 12 -19 37 -68 55 -109z m-733 -4 c-4 -7 -11 -37 -14 -67 l-6 -55 -2 56
c0 31 2 71 6 90 6 31 7 31 15 10 4 -13 5 -28 1 -34z m1228 2 c-9 -22 -10 -22
-10 -3 -1 11 2 24 6 27 12 12 14 0 4 -24z m-885 -94 c8 -13 14 -32 12 -42 -4
-14 -7 -12 -18 12 -8 17 -15 31 -16 33 -1 2 -12 -1 -23 -8 -25 -13 -28 -2 -3
16 24 19 29 17 48 -11z m-489 -27 c-3 -8 -6 -5 -6 6 -1 11 2 17 5 13 3 -3 4
-12 1 -19z m396 1 c-6 -6 -9 -17 -7 -24 8 -19 -15 -29 -32 -14 -14 12 -14 15
6 31 25 20 52 26 33 7z m-70 -32 c3 -8 1 -20 -5 -28 -8 -11 -9 -10 -4 4 3 9 1
17 -4 17 -6 0 -10 5 -10 10 0 15 17 12 23 -3z m195 -32 c-3 -3 -9 2 -12 12 -6
14 -5 15 5 6 7 -7 10 -15 7 -18z m-244 -1 c3 -8 2 -12 -4 -9 -6 3 -10 10 -10
16 0 14 7 11 14 -7z m-117 -47 c-4 -10 2 -13 19 -9 13 2 24 2 24 -1 0 -12 -29
-71 -30 -59 0 6 -7 12 -15 12 -10 0 -15 11 -15 35 0 19 5 35 11 35 6 0 9 -6 6
-13z m453 -89 c0 -32 -16 -19 -18 15 -2 24 0 28 8 17 5 -8 10 -23 10 -32z
m-150 -7 c-6 -12 -16 -19 -21 -15 -6 4 -4 13 7 25 21 24 29 18 14 -10z m-250
-14 c0 -8 9 -25 21 -38 11 -13 27 -36 35 -50 12 -25 42 -45 51 -35 10 9 -11
56 -26 61 -23 7 -47 55 -28 55 14 0 39 -27 57 -59 10 -19 13 -20 26 -6 8 8 13
18 10 23 -2 4 -1 14 4 22 8 13 12 12 27 -3 14 -14 15 -21 6 -35 -56 -80 -85
-211 -65 -286 11 -38 7 -66 -9 -66 -5 0 -8 3 -7 8 5 19 -14 127 -31 174 -11
29 -23 70 -27 90 -3 21 -21 63 -40 94 -39 65 -39 64 -19 64 8 0 15 -6 15 -13z
m200 -1 c0 -3 -4 -8 -10 -11 -5 -3 -10 -1 -10 4 0 6 5 11 10 11 6 0 10 -2 10
-4z m253 -66 c-5 -71 -14 -100 -30 -100 -11 0 -13 5 -7 18 9 22 10 49 1 90 -6
30 -5 33 16 30 18 -3 22 -9 20 -38z m-544 -114 c11 -18 36 -47 56 -64 19 -18
35 -39 35 -47 0 -8 5 -15 11 -15 6 0 9 -6 6 -14 -3 -7 1 -31 8 -52 8 -22 14
-34 15 -29 0 6 5 2 11 -7 5 -10 15 -18 22 -18 21 -1 58 -38 63 -65 2 -14 0
-25 -6 -25 -5 0 -10 4 -10 9 0 5 -11 23 -25 40 -28 33 -55 32 -55 -2 0 -33
-12 -12 -21 39 -5 27 -17 53 -28 60 -20 15 -88 109 -115 161 -35 70 -7 94 33
29z m2928 -108 c-3 -7 -5 -2 -5 12 0 14 2 19 5 13 2 -7 2 -19 0 -25z m-128
-52 c-9 -8 -10 -7 -5 7 3 10 7 28 7 40 2 16 3 14 6 -7 3 -16 -1 -34 -8 -40z
m-383 -103 c-10 -10 -19 5 -10 18 6 11 8 11 12 0 2 -7 1 -15 -2 -18z m-2410
-60 c-10 -10 -19 5 -10 18 6 11 8 11 12 0 2 -7 1 -15 -2 -18z m152 -26 c6 -5
12 -18 12 -29 0 -10 4 -17 9 -13 19 11 91 -88 76 -103 -8 -8 -35 27 -35 45 0
7 -4 13 -10 13 -5 0 -10 -7 -10 -15 0 -11 -5 -12 -24 -5 -20 7 -25 5 -34 -15
-12 -25 -1 -45 61 -111 26 -29 28 -34 16 -55 -16 -29 -14 -40 17 -102 13 -26
23 -51 21 -55 -1 -4 9 -18 21 -30 31 -31 22 -37 -19 -14 -19 10 -40 17 -46 15
-7 -3 -15 1 -17 9 -50 165 -68 209 -109 269 -24 33 -22 63 2 56 17 -4 19 -2
10 20 -5 14 -18 38 -29 53 -25 35 -25 42 0 65 11 10 20 14 20 10 0 -5 5 -4 11
2 12 12 34 8 57 -10z m122 -185 c0 -15 -2 -15 -10 -2 -13 20 -13 33 0 25 6 -3
10 -14 10 -23z m1321 -22 c5 0 9 -4 9 -10 0 -5 -7 -6 -17 -3 -11 4 -14 3 -9
-5 5 -8 -1 -12 -18 -12 -14 0 -26 5 -26 10 0 6 7 10 16 10 9 0 12 5 8 12 -5 8
-2 9 10 5 10 -4 22 -7 27 -7z m-1874 -73 c11 -4 24 -15 27 -23 4 -12 2 -15 -9
-10 -9 3 -15 0 -15 -9 0 -7 9 -17 20 -20 11 -3 20 -11 20 -16 0 -15 -30 -23
-43 -10 -6 6 -21 11 -34 11 -16 0 -21 4 -17 15 4 8 14 15 23 15 13 0 13 2 2 9
-11 7 -11 9 0 13 8 3 11 9 7 13 -4 4 -19 0 -33 -9 l-26 -17 16 24 c16 25 23
27 62 14z m1793 -5 c0 -4 15 -6 34 -4 44 5 61 -23 57 -95 -1 -28 2 -60 8 -72
9 -17 8 -22 -9 -31 -11 -6 -20 -19 -20 -28 0 -13 -15 -23 -52 -34 -29 -9 -54
-15 -55 -14 -2 2 15 80 23 108 4 14 -7 13 -78 -12 -104 -35 -148 -45 -148 -31
0 15 21 25 61 28 47 3 111 25 110 38 0 6 -15 12 -33 15 -28 5 -30 6 -13 13 16
7 17 10 5 18 -12 8 -9 14 18 39 17 16 32 34 32 38 0 5 10 14 23 20 27 13 37
14 37 4z m1215 -111 c-3 -6 -14 -11 -23 -11 -15 1 -15 2 2 15 21 16 32 13 21
-4z m-3234 -24 c12 -22 12 -22 -10 -3 -11 11 -21 23 -21 28 0 14 19 -1 31 -25z
m432 -9 c35 -25 31 -30 -14 -19 -19 5 -51 12 -72 16 -33 5 -36 8 -27 25 9 16
15 17 47 8 21 -6 51 -19 66 -30z m167 -38 c0 -5 -5 -10 -11 -10 -5 0 -7 5 -4
10 3 6 8 10 11 10 2 0 4 -4 4 -10z m-74 -65 c19 -14 19 -14 -1 -15 -11 0 -38
3 -60 7 -31 5 -35 8 -20 14 32 12 60 10 81 -6z m1674 -6 c13 -24 16 -21 -33
-47 -20 -11 -46 -31 -57 -45 l-21 -26 21 -11 c12 -6 20 -7 20 -1 0 5 17 28 38
51 34 36 41 39 52 25 7 -8 9 -15 6 -15 -4 0 -2 -9 4 -20 9 -17 7 -22 -15 -32
-38 -17 -98 -105 -91 -133 8 -31 -16 -39 -44 -13 l-21 20 22 24 c28 29 17 45
-12 18 -21 -19 -22 -19 -36 4 -9 12 -23 22 -32 22 -28 1 -52 25 -39 38 7 7 18
12 26 12 8 0 25 9 39 20 14 11 32 20 39 20 8 0 14 4 14 9 0 5 9 11 21 14 16 4
19 11 14 27 -15 46 63 82 85 39z m-224 -8 c-10 -15 -206 -144 -212 -138 -7 6
47 48 134 103 67 42 88 52 78 35z m-1198 -16 c14 -14 -9 -13 -39 0 l-34 16 34
-6 c19 -3 37 -7 39 -10z m269 -1 c-3 -3 -12 -4 -19 -1 -8 3 -5 6 6 6 11 1 17
-2 13 -5z m1165 -276 c-17 -17 -25 -19 -34 -10 -9 9 -6 14 13 21 39 16 45 12
21 -11z m-792 -350 c0 -10 -44 -21 -66 -16 -9 1 -19 9 -22 16 -3 9 9 12 42 10
25 -2 46 -6 46 -10z m1080 -128 c-16 -31 -23 -18 -8 15 7 15 14 23 16 17 2 -6
-2 -21 -8 -32z m1606 18 c4 -7 3 -9 -1 -5 -5 4 -14 -2 -21 -14 -11 -22 -11
-22 -11 4 0 28 20 37 33 15z"/>
<path d="M2665 6180 c3 -5 11 -10 16 -10 6 0 7 5 4 10 -3 6 -11 10 -16 10 -6
0 -7 -4 -4 -10z"/>
<path d="M3855 5240 c-6 -20 -8 -20 -25 -5 -22 20 -76 15 -72 -7 1 -8 38 -52
82 -97 72 -74 80 -79 80 -56 0 15 -5 36 -11 47 -7 14 -8 23 -1 27 13 8 -18
103 -35 108 -6 2 -14 -5 -18 -17z"/>
<path d="M3680 5064 c0 -24 40 -56 54 -45 8 7 23 3 45 -11 26 -17 31 -25 26
-45 -5 -20 -2 -24 12 -21 27 5 22 20 -19 66 -54 60 -118 90 -118 56z"/>
<path d="M2072 5413 c2 -9 9 -18 16 -21 18 -6 15 25 -4 32 -11 4 -14 1 -12
-11z"/>
<path d="M1470 5476 c0 -7 -7 -19 -15 -26 -29 -24 -15 -31 14 -8 34 26 37 34
16 42 -9 3 -15 0 -15 -8z"/>
<path d="M1672 5305 c2 -13 12 -21 28 -22 14 -1 18 0 10 3 -8 4 -21 14 -28 23
-13 14 -13 14 -10 -4z"/>
<path d="M3388 4753 c7 -3 16 -2 19 1 4 3 -2 6 -13 5 -11 0 -14 -3 -6 -6z"/>
<path d="M3445 4700 c-27 -11 49 -11 85 0 21 7 17 8 -20 8 -25 0 -54 -3 -65
-8z"/>
<path d="M2695 4500 c4 -6 11 -8 16 -5 14 9 11 15 -7 15 -8 0 -12 -5 -9 -10z"/>
<path d="M2875 4499 c-4 -6 -5 -12 -2 -15 2 -3 7 2 10 11 7 17 1 20 -8 4z"/>
<path d="M3607 4398 c-11 -9 -16 -20 -12 -30 6 -15 19 -16 98 -12 84 6 127 20
127 43 0 3 -44 7 -98 9 -68 2 -103 -1 -115 -10z"/>
<path d="M3922 4383 c-7 -11 -6 -23 1 -34 10 -17 8 -24 -21 -80 -6 -13 32 -19
40 -7 11 18 10 40 -2 33 -9 -6 -8 16 6 83 5 26 -11 30 -24 5z"/>
<path d="M4155 4280 c-3 -6 1 -7 9 -4 18 7 21 14 7 14 -6 0 -13 -4 -16 -10z"/>
<path d="M4221 4220 c-1 -15 -6 -31 -12 -37 -16 -16 -24 -127 -11 -149 9 -15
11 -8 12 39 0 32 5 78 11 102 6 24 9 50 6 57 -3 7 -6 2 -6 -12z"/>
<path d="M3872 4143 c-53 -78 -57 -107 -8 -66 36 29 60 80 54 110 -2 13 -16 0
-46 -44z"/>
<path d="M4111 4171 c-1 -7 -14 -29 -31 -48 -28 -31 -41 -83 -22 -83 25 0 71
102 59 131 -5 12 -6 12 -6 0z"/>
<path d="M4310 4171 c0 -6 4 -13 10 -16 6 -3 7 1 4 9 -7 18 -14 21 -14 7z"/>
<path d="M4304 4094 c-5 -26 -3 -39 7 -45 20 -12 27 1 22 44 -6 47 -20 48 -29
1z"/>
<path d="M3455 4110 c-3 -5 -1 -10 4 -10 6 0 11 5 11 10 0 6 -2 10 -4 10 -3 0
-8 -4 -11 -10z"/>
<path d="M3997 4093 c-11 -17 4 -94 17 -90 14 4 21 67 7 67 -5 0 -11 8 -13 18
-2 12 -6 13 -11 5z"/>
<path d="M3463 4015 c4 -5 -7 -15 -24 -22 -17 -7 -28 -17 -24 -23 4 -7 17 -4
36 7 32 19 36 28 17 39 -7 4 -10 3 -5 -1z"/>
<path d="M3821 3961 c-8 -5 -9 -11 -3 -15 5 -3 12 1 16 9 6 17 6 18 -13 6z"/>
<path d="M3619 3833 c-13 -16 -12 -17 4 -4 16 13 21 21 13 21 -2 0 -10 -8 -17
-17z"/>
<path d="M3888 3805 c-3 -22 -3 -44 1 -50 3 -5 4 -18 3 -27 -2 -10 2 -18 7
-18 12 0 13 57 2 105 -7 30 -7 30 -13 -10z"/>
<path d="M3963 3740 c0 -25 2 -35 4 -22 2 12 2 32 0 45 -2 12 -4 2 -4 -23z"/>
<path d="M3931 3694 c0 -11 3 -14 6 -6 3 7 2 16 -1 19 -3 4 -6 -2 -5 -13z"/>
<path d="M3230 3040 c0 -5 5 -10 10 -10 6 0 10 5 10 10 0 6 -4 10 -10 10 -5 0
-10 -4 -10 -10z"/>
<path d="M1775 1140 c3 -5 8 -10 11 -10 2 0 4 5 4 10 0 6 -5 10 -11 10 -5 0
-7 -4 -4 -10z"/>
<path d="M3180 7197 c21 -22 74 -35 68 -16 -3 8 -13 15 -24 15 -10 1 -28 5
-39 9 -18 7 -18 6 -5 -8z"/>
<path d="M2938 7184 c-14 -22 16 -113 42 -129 12 -8 13 7 1 21 -4 5 -12 22
-15 38 -6 24 -5 28 6 20 8 -5 6 -2 -3 7 -9 8 -19 24 -21 35 -2 11 -6 15 -10 8z"/>
<path d="M3300 7130 c5 -14 13 -33 16 -43 4 -10 13 -16 20 -13 9 3 14 -2 14
-14 0 -20 11 -26 23 -14 10 10 -36 95 -49 90 -6 -2 -17 1 -23 7 -9 9 -10 6 -1
-13z"/>
<path d="M3705 7100 c-3 -5 -2 -10 4 -10 5 0 13 5 16 10 3 6 2 10 -4 10 -5 0
-13 -4 -16 -10z"/>
<path d="M3839 7046 c-20 -43 -11 -58 29 -54 l31 3 -20 43 c-11 23 -21 42 -22
42 -2 0 -10 -15 -18 -34z"/>
<path d="M2436 7001 c-10 -15 22 -20 34 -5 10 11 9 14 -8 14 -12 0 -23 -4 -26
-9z"/>
<path d="M3941 7001 c-9 -6 -10 -14 -4 -25 8 -15 11 -14 21 9 12 26 7 31 -17
16z"/>
<path d="M2537 6959 c10 -17 22 -40 28 -50 5 -11 18 -22 27 -25 10 -3 21 -17
24 -30 4 -17 10 -22 17 -15 17 17 -2 59 -46 106 -51 53 -76 60 -50 14z"/>
<path d="M2837 6969 c7 -7 15 -10 18 -7 3 3 -2 9 -12 12 -14 6 -15 5 -6 -5z"/>
<path d="M3350 6925 c-14 -7 -38 -18 -55 -25 -16 -6 -43 -18 -58 -26 -16 -8
-35 -14 -43 -14 -9 0 -12 -5 -9 -10 3 -6 -1 -13 -9 -16 -9 -3 -16 -16 -16 -28
0 -12 -6 -28 -12 -35 -11 -11 -9 -13 9 -8 16 3 20 1 16 -11 -5 -12 0 -12 26 4
18 10 42 29 54 42 18 20 19 25 7 33 -13 9 -12 10 2 5 16 -5 128 59 128 73 -1
22 -17 29 -40 16z"/>
<path d="M2870 6915 c0 -8 -7 -15 -15 -15 -19 0 -20 -34 -1 -50 8 -6 25 -10
38 -7 l23 4 -23 8 c-19 6 -22 12 -16 41 3 19 3 34 0 34 -3 0 -6 -7 -6 -15z"/>
<path d="M3811 6913 c7 -12 15 -20 18 -17 3 2 -3 12 -13 22 -17 16 -18 16 -5
-5z"/>
<path d="M3926 6893 c-3 -3 -3 -10 0 -14 7 -12 34 -11 34 0 0 11 -26 22 -34
14z"/>
<path d="M2974 6875 c16 -12 18 -17 7 -28 -11 -9 -14 -9 -18 0 -3 10 -10 10
-24 2 -11 -5 -17 -14 -14 -19 4 -6 -7 -7 -26 -3 -23 4 -31 3 -28 -6 3 -7 8
-12 13 -11 5 1 12 -4 16 -10 5 -7 16 -9 29 -5 12 3 19 11 16 16 -4 5 -2 9 4 9
5 0 15 -16 21 -35 6 -19 15 -37 19 -40 5 -2 18 21 29 53 24 64 20 75 -33 86
-28 6 -29 5 -11 -9z"/>
<path d="M3117 6679 c7 -7 15 -10 18 -7 3 3 -2 9 -12 12 -14 6 -15 5 -6 -5z"/>
<path d="M2940 6490 c-23 -6 -22 -7 14 -14 43 -8 53 -5 28 10 -9 6 -28 8 -42
4z"/>
<path d="M1640 6375 c-7 -9 -8 -15 -2 -15 5 0 12 7 16 15 3 8 4 15 2 15 -2 0
-9 -7 -16 -15z"/>
<path d="M2901 6375 c9 -8 98 -11 93 -3 -3 4 -26 8 -51 8 -26 0 -44 -2 -42 -5z"/>
<path d="M3065 6349 c18 -5 33 -5 39 1 7 7 -4 10 -29 9 -40 -1 -40 -1 -10 -10z"/>
<path d="M8074 6082 c-18 -38 -43 -69 -72 -91 -27 -20 -41 -38 -38 -47 3 -9
-4 -16 -21 -20 -60 -15 -137 -69 -163 -114 -17 -29 -34 -46 -49 -48 -13 -2
-42 -22 -65 -44 -22 -22 -53 -46 -68 -54 -16 -8 -28 -20 -28 -28 0 -7 -21 -31
-47 -54 -27 -23 -56 -48 -65 -57 -10 -8 -22 -15 -27 -15 -11 0 -64 -51 -106
-103 -16 -20 -35 -37 -42 -37 -7 0 -17 -8 -22 -18 -6 -11 -23 -32 -38 -49 -16
-16 -39 -54 -53 -84 -14 -29 -33 -62 -42 -71 -24 -24 -23 -33 12 -76 36 -45
67 -114 76 -168 5 -33 1 -52 -24 -100 -36 -72 -51 -174 -28 -193 8 -7 12 -19
9 -27 -8 -21 -75 -9 -128 21 -31 19 -50 22 -85 18 -50 -6 -70 8 -87 62 -11 34
-59 52 -102 37 -27 -10 -71 0 -71 16 0 19 -48 31 -79 19 -25 -9 -37 -8 -66 6
-45 22 -54 21 -107 -3 -79 -36 -109 -58 -184 -132 -59 -57 -74 -78 -71 -96 2
-12 1 -25 -3 -27 -4 -3 -11 -20 -14 -39 -4 -19 -13 -39 -21 -46 -8 -7 -15 -22
-15 -34 0 -11 -11 -43 -25 -71 -13 -27 -25 -58 -25 -67 0 -28 -31 -21 -89 20
-107 74 -132 82 -180 58 -46 -24 -57 -43 -37 -65 11 -13 14 -21 7 -26 -13 -8
-15 -72 -2 -79 16 -11 19 -45 5 -72 -12 -23 -12 -30 -1 -48 10 -15 11 -28 3
-49 -9 -24 -14 -26 -42 -21 -43 8 -52 -11 -55 -108 -3 -96 16 -133 87 -168 28
-14 61 -32 75 -41 13 -8 49 -25 79 -38 115 -46 145 -95 133 -217 -5 -58 -4
-62 22 -80 54 -38 67 -55 60 -77 -15 -50 -17 -70 -10 -132 4 -44 14 -75 31
-97 13 -18 28 -42 33 -54 10 -23 64 -49 99 -47 19 1 19 0 2 -4 -28 -6 -25 -17
18 -59 20 -20 51 -62 68 -93 24 -45 40 -61 80 -81 27 -14 70 -40 94 -58 49
-37 111 -71 150 -83 21 -6 19 -7 -15 -8 -22 0 -74 11 -115 24 -41 14 -77 25
-80 25 -6 0 -106 -73 -140 -102 -9 -7 -32 -26 -53 -41 -20 -15 -37 -33 -37
-38 0 -6 -9 -22 -20 -36 -11 -14 -20 -36 -20 -50 0 -13 -7 -34 -15 -47 -14
-20 -14 -27 0 -59 13 -31 20 -37 58 -42 43 -7 44 -8 42 -41 -1 -19 -5 -38 -9
-41 -11 -12 -6 -90 7 -101 7 -6 37 -12 67 -14 46 -2 55 -6 55 -22 0 -26 28
-34 163 -47 99 -10 124 -16 162 -40 26 -16 96 -41 165 -59 66 -17 143 -44 171
-60 29 -16 85 -38 126 -49 76 -20 148 -55 208 -101 65 -50 222 -120 269 -120
16 0 40 -16 67 -44 47 -49 73 -66 103 -66 11 0 54 -23 94 -50 77 -52 134 -78
297 -135 52 -18 128 -45 167 -59 40 -14 88 -28 108 -32 l35 -6 0 2490 0 2490
-50 12 c-28 7 -65 9 -83 6 -26 -5 -41 0 -81 29 -55 39 -77 42 -120 20 -38 -20
-76 -19 -106 5 -14 11 -28 20 -31 20 -4 0 -19 -26 -35 -58z m-1624 -3102 c21
-17 54 -37 72 -45 30 -12 35 -19 36 -51 1 -20 7 -43 14 -51 11 -14 8 -15 -22
-8 -19 4 -52 16 -72 26 -21 11 -43 19 -51 19 -24 0 -107 70 -107 90 0 13 5 18
15 14 8 -4 15 -1 15 5 0 6 7 11 15 11 8 0 15 5 15 10 0 19 32 10 70 -20z m157
5 c0 -18 2 -18 -33 0 l-29 15 31 0 c21 0 31 -5 31 -15z m-347 -5 c0 -5 -2 -10
-4 -10 -3 0 -8 5 -11 10 -3 6 -1 10 4 10 6 0 11 -4 11 -10z m380 -25 c7 -9 8
-15 2 -15 -5 0 -12 7 -16 15 -3 8 -4 15 -2 15 2 0 9 -7 16 -15z m205 -55 c10
-11 23 -20 29 -20 6 0 36 -23 65 -50 30 -28 59 -50 63 -50 4 0 8 -6 8 -13 0
-7 16 -28 35 -47 20 -19 33 -40 30 -48 -2 -7 0 -10 5 -7 13 8 60 -24 60 -41 0
-8 -4 -14 -10 -14 -18 0 0 -25 31 -43 21 -11 29 -22 25 -33 -3 -8 -2 -13 2
-10 13 8 35 -11 28 -23 -13 -20 -37 -12 -73 24 -18 18 -36 34 -39 34 -11 1
-135 83 -239 159 -91 66 -108 75 -123 60 -7 -7 -21 -6 -44 2 -29 11 -37 20
-46 57 -7 24 -12 48 -12 54 0 22 47 -5 92 -53 26 -27 52 -47 58 -43 5 3 10 -1
10 -9 0 -9 5 -16 11 -16 5 0 7 4 4 10 -3 5 0 7 8 4 8 -3 18 6 25 21 10 22 9
30 -5 50 -10 14 -21 25 -25 25 -4 0 -12 9 -18 20 -9 17 -8 20 8 20 10 0 27 -9
37 -20z m334 -142 c6 -17 4 -25 -8 -29 -17 -7 -36 25 -25 42 9 16 24 10 33
-13z m-134 2 c3 -5 1 -10 -4 -10 -6 0 -11 5 -11 10 0 6 2 10 4 10 3 0 8 -4 11
-10z m74 -44 c9 -11 8 -15 -5 -20 -23 -9 -24 -8 -24 14 0 23 13 26 29 6z m126
-226 c3 -5 1 -10 -4 -10 -6 0 -11 5 -11 10 0 6 2 10 4 10 3 0 8 -4 11 -10z"/>
<path d="M6360 2941 c0 -5 14 -19 30 -31 32 -23 41 -10 16 23 -14 18 -46 24
-46 8z"/>
<path d="M7100 2630 c0 -5 5 -10 11 -10 5 0 7 5 4 10 -3 6 -8 10 -11 10 -2 0
-4 -4 -4 -10z"/>
<path d="M1256 5735 c4 -8 8 -15 10 -15 2 0 4 7 4 15 0 8 -4 15 -10 15 -5 0
-7 -7 -4 -15z"/>
<path d="M1149 5520 c-18 -57 -11 -68 25 -44 19 12 25 23 22 44 -7 65 -27 65
-47 0z"/>
<path d="M1120 5406 c0 -9 5 -16 10 -16 6 0 10 4 10 9 0 6 -4 13 -10 16 -5 3
-10 -1 -10 -9z"/>
<path d="M1150 5367 c0 -18 28 -42 37 -33 9 8 -9 38 -25 44 -7 2 -12 -3 -12
-11z"/>
<path d="M1108 5289 c-3 -16 -1 -29 4 -29 4 0 8 -8 8 -19 0 -28 26 -47 45 -31
19 16 19 39 1 46 -8 3 -17 16 -20 29 -9 36 -33 39 -38 4z"/>
<path d="M1100 5195 c0 -8 4 -15 9 -15 5 0 23 -12 40 -26 23 -19 31 -22 31
-10 0 14 -58 66 -73 66 -4 0 -7 -7 -7 -15z"/>
<path d="M1956 4864 c-3 -9 2 -14 14 -14 26 0 34 17 11 23 -12 3 -22 -1 -25
-9z"/>
<path d="M1330 4400 c0 -5 5 -10 11 -10 5 0 7 5 4 10 -3 6 -8 10 -11 10 -2 0
-4 -4 -4 -10z"/>
<path d="M1517 3879 c-9 -6 -22 -7 -27 -4 -6 3 -10 1 -10 -5 0 -11 47 -6 59 6
10 10 -6 12 -22 3z"/>
<path d="M1230 3778 c0 -30 10 -40 28 -29 10 6 8 14 -7 32 l-20 24 -1 -27z"/>
<path d="M1532 3473 c-7 -7 -8 -13 -3 -13 16 0 41 12 41 19 0 13 -25 9 -38 -6z"/>
<path d="M4180 3445 c0 -8 4 -15 10 -15 5 0 7 7 4 15 -4 8 -8 15 -10 15 -2 0
-4 -7 -4 -15z"/>
<path d="M1732 3380 c-10 -17 -10 -20 2 -20 19 0 31 19 19 31 -5 5 -14 0 -21
-11z"/>
<path d="M4432 3336 c-5 -6 -9 -27 -11 -46 -2 -33 -1 -34 14 -15 12 15 18 17
22 7 8 -19 32 17 26 39 -6 21 -39 31 -51 15z"/>
<path d="M2386 3181 c-4 -5 -2 -12 3 -15 5 -4 12 -2 15 3 4 5 2 12 -3 15 -5 4
-12 2 -15 -3z"/>
<path d="M2310 3131 c-7 -13 -7 -22 0 -26 5 -3 10 -1 10 4 0 6 5 11 10 11 6 0
10 -6 10 -14 0 -28 18 -26 33 2 13 28 13 28 -10 24 -13 -2 -23 1 -23 7 0 18
-18 13 -30 -8z"/>
<path d="M2090 3072 c0 -6 5 -14 10 -17 6 -3 10 -14 10 -23 0 -10 9 -34 20
-55 11 -20 20 -43 20 -49 0 -7 6 -25 14 -40 8 -15 17 -40 21 -57 3 -16 13 -35
21 -42 8 -6 14 -19 14 -28 0 -10 6 -26 14 -36 12 -17 14 -14 20 30 4 26 12 55
18 64 7 12 4 36 -11 86 -25 81 -33 92 -72 100 -16 4 -35 14 -42 23 -20 28 -57
56 -57 44z m150 -198 c0 -8 -4 -12 -10 -9 -5 3 -10 13 -10 21 0 8 5 12 10 9 6
-3 10 -13 10 -21z"/>
<path d="M4615 3059 c-10 -15 3 -25 16 -12 7 7 7 13 1 17 -6 3 -14 1 -17 -5z"/>
<path d="M4659 3053 c-1 -5 0 -46 1 -93 1 -91 24 -184 43 -177 7 3 10 11 8 18
-2 8 -4 64 -5 124 -1 61 -5 116 -9 123 -9 13 -36 17 -38 5z"/>
<path d="M2370 3047 c0 -14 29 -77 35 -77 4 0 3 10 -1 23 -7 24 -34 66 -34 54z"/>
<path d="M2470 2924 c1 -11 7 -30 15 -44 l14 -25 1 31 c0 17 -7 37 -15 44 -12
10 -15 9 -15 -6z"/>
<path d="M2440 2786 c0 -8 4 -17 9 -20 5 -4 7 3 4 14 -6 23 -13 26 -13 6z"/>
<path d="M4594 2792 c-10 -6 -19 -48 -15 -75 1 -5 13 1 28 13 44 34 32 91 -13
62z"/>
<path d="M2285 2755 c-3 -16 -10 -37 -15 -46 -5 -9 -4 -22 2 -30 8 -12 10 -12
15 -1 3 9 16 -1 35 -30 17 -23 28 -36 25 -28 -14 47 -31 99 -42 130 l-13 35
-7 -30z"/>
<path d="M4591 2644 c0 -11 3 -14 6 -6 3 7 2 16 -1 19 -3 4 -6 -2 -5 -13z"/>
<path d="M1233 2478 c-16 -19 -14 -86 3 -92 17 -7 29 50 17 82 -7 19 -11 21
-20 10z"/>
<path d="M2114 2376 c-6 -17 2 -36 17 -36 12 0 12 37 -1 45 -6 3 -13 -1 -16
-9z"/>
<path d="M1363 1843 c-14 -5 -18 -33 -5 -33 5 0 17 9 27 20 18 20 8 26 -22 13z"/>
<path d="M1450 1824 c0 -10 -6 -14 -15 -11 -8 4 -17 2 -20 -3 -4 -6 -18 -10
-33 -10 -30 0 -56 -38 -41 -62 12 -18 11 -58 -1 -58 -17 0 -29 -37 -23 -73 3
-20 9 -34 14 -31 5 3 9 0 9 -5 0 -6 5 -11 10 -11 6 0 10 9 10 19 0 14 5 18 20
14 27 -7 90 61 90 97 0 15 5 41 11 59 6 17 8 42 5 55 -7 28 -36 44 -36 20z"/>
<path d="M1458 1595 c-3 -14 -1 -25 3 -25 5 0 9 11 9 25 0 14 -2 25 -4 25 -2
0 -6 -11 -8 -25z"/>
<path d="M1400 1559 c0 -5 5 -7 10 -4 6 3 10 8 10 11 0 2 -4 4 -10 4 -5 0 -10
-5 -10 -11z"/>
<path d="M1420 1466 c0 -2 7 -9 15 -16 9 -7 15 -8 15 -2 0 5 -7 12 -15 16 -8
3 -15 4 -15 2z"/>
<path d="M5787 1458 c-6 -19 11 -48 29 -48 13 0 13 4 -1 30 -17 33 -21 36 -28
18z"/>
<path d="M5720 1350 c0 -13 28 -25 38 -16 3 4 0 11 -8 16 -20 13 -30 12 -30 0z"/>
<path d="M1297 1320 c3 -10 12 -25 21 -32 13 -11 12 -8 -2 20 -19 36 -27 41
-19 12z"/>
<path d="M5650 1281 c0 -6 5 -13 10 -16 6 -3 10 1 10 9 0 9 -4 16 -10 16 -5 0
-10 -4 -10 -9z"/>
<path d="M5660 1222 c0 -16 6 -37 14 -47 13 -18 14 -18 25 3 7 14 8 29 1 46
-13 36 -40 34 -40 -2z"/>
<path d="M5556 1214 c-3 -8 -1 -24 4 -35 9 -15 14 -17 29 -7 17 11 18 14 4 35
-18 27 -29 29 -37 7z"/>
<path d="M5941 1076 c-16 -25 -21 -50 -21 -104 0 -39 -4 -82 -10 -96 -12 -33
-3 -33 22 -1 22 28 68 34 87 11 10 -12 9 -20 -3 -39 -12 -17 -14 -36 -10 -70
6 -43 9 -47 33 -45 52 4 61 -23 36 -117 -3 -14 3 -26 21 -39 25 -18 27 -18 65
-1 31 15 41 15 54 5 21 -17 19 -44 -6 -66 -27 -24 -69 -118 -69 -153 0 -33
-17 -51 -47 -51 -21 0 -43 -25 -43 -49 0 -6 13 -11 28 -11 16 0 37 -9 47 -20
18 -20 18 -21 -23 -63 -51 -52 -57 -91 -14 -84 42 8 62 18 55 30 -3 5 -1 7 5
4 20 -13 41 5 58 49 14 38 19 42 35 33 11 -5 19 -19 19 -29 0 -11 6 -20 13
-20 14 0 47 35 47 50 0 6 6 10 13 10 8 0 24 9 37 20 13 11 27 20 31 20 4 0 20
5 36 12 31 12 113 22 113 12 0 -3 -18 -40 -40 -81 -22 -42 -40 -82 -40 -90 0
-8 -19 -22 -42 -32 -24 -10 -61 -30 -82 -45 l-39 -26 227 0 c148 0 225 3 221
10 -9 15 43 77 94 113 41 29 54 32 116 32 86 0 173 -38 251 -108 l52 -47 193
0 c176 1 191 2 162 15 -18 8 -33 18 -33 22 0 5 -20 33 -45 63 -25 30 -45 65
-45 77 0 13 -6 23 -14 23 -8 0 -52 31 -98 70 -96 80 -233 152 -325 170 -58 12
-170 9 -248 -5 -47 -9 -55 3 -43 58 14 69 8 77 -57 77 -49 0 -57 3 -64 23 -12
30 -8 92 9 150 12 41 12 49 -1 62 -13 13 -24 14 -68 4 -29 -6 -63 -8 -76 -5
-12 3 -39 -1 -59 -9 -45 -19 -46 -19 -46 5 0 11 -10 39 -22 62 -34 68 -36 70
-70 52 -27 -14 -31 -14 -47 0 -21 20 -41 20 -74 3 -19 -10 -42 -12 -83 -6 -31
4 -67 4 -80 -1 -18 -7 -24 -6 -24 4 0 7 -9 21 -20 31 -25 22 -27 81 -4 113 18
25 13 52 -10 52 -8 0 -24 -15 -35 -34z"/>
<path d="M5707 934 c-56 -58 -64 -81 -43 -122 9 -17 16 -46 16 -65 0 -30 4
-35 37 -45 30 -9 42 -9 59 3 19 12 21 21 17 62 -3 26 -10 54 -16 61 -6 8 -13
46 -16 85 l-6 71 -48 -50z"/>
<path d="M5986 544 c-9 -8 -16 -20 -16 -25 0 -17 18 -9 34 16 18 28 6 34 -18
9z"/>
<path d="M2771 269 c-23 -65 -4 -88 59 -74 32 7 35 17 24 74 -6 27 -11 31 -39
31 -28 0 -35 -5 -44 -31z"/>
<path d="M2999 117 c0 -1 -3 -23 -5 -50 -8 -72 29 -56 37 17 3 22 0 30 -13 32
-10 1 -18 2 -19 1z"/>
</g>
</svg>
